<?xml version="1.0" standalone="no"?>
<!DOCTYPE svg PUBLIC "-//W3C//DTD SVG 20010904//EN"
 "http://www.w3.org/TR/2001/REC-SVG-20010904/DTD/svg10.dtd">
<svg version="1.0" xmlns="http://www.w3.org/2000/svg"
 width="320.000000pt" height="320.000000pt" viewBox="0 0 320.000000 320.000000"
 preserveAspectRatio="xMidYMid meet">

<g transform="translate(0.000000,320.000000) scale(0.100000,-0.100000)"
fill="#ffffff" stroke="none">
<path d="M0 2356 c0 -835 0 -844 20 -849 27 -7 27 -53 1 -62 -19 -6 -19 -22
-20 -490 -2 -473 -1 -483 18 -478 25 6 61 -30 61 -61 0 -27 -33 -56 -62 -56
-27 0 -25 -81 2 -98 28 -17 28 -77 0 -94 -16 -10 -20 -23 -20 -68 l1 -55 32
36 c87 99 118 145 147 224 23 59 47 102 84 144 28 33 79 93 113 133 105 123
123 137 123 101 0 -13 3 -14 8 -5 5 8 13 -6 21 -37 7 -28 20 -56 29 -63 13
-11 15 -11 9 5 -36 95 -42 182 -14 199 25 16 32 6 34 -50 0 -31 8 -90 17 -131
17 -83 14 -106 -5 -41 -7 24 -14 39 -16 34 -2 -6 3 -32 11 -59 9 -27 13 -51
11 -53 -2 -2 -21 9 -42 24 l-38 29 41 -50 c98 -119 211 -337 221 -425 l6 -60
42 0 43 0 16 66 c23 92 50 140 94 169 42 28 122 57 208 76 58 13 58 13 24 19
-31 5 -27 7 32 14 79 9 134 23 103 26 -24 3 57 18 100 19 22 1 26 -2 17 -11
-20 -20 -14 -37 20 -54 25 -13 38 -14 68 -5 52 16 60 14 60 -11 0 -31 -44
-187 -64 -229 -16 -32 -6 -24 21 18 10 15 12 9 12 -39 l1 -57 35 1 c25 1 33 4
25 12 -17 17 -12 45 8 42 9 -2 16 -7 15 -12 -3 -23 20 -44 49 -44 30 0 31 0
13 20 -29 32 -16 102 40 216 45 94 115 181 135 169 5 -3 11 -1 15 5 3 5 17 10
31 10 14 0 63 16 109 36 l84 37 73 -43 c88 -52 106 -66 125 -104 11 -20 12
-31 4 -39 -8 -8 -11 -7 -11 4 -1 7 -8 -2 -17 -21 l-16 -35 -9 39 c-13 58 -18
56 -11 -3 5 -44 3 -55 -15 -74 -12 -12 -30 -43 -42 -69 -11 -26 -24 -49 -29
-52 -4 -3 -13 19 -20 49 -12 53 -69 180 -77 172 -3 -2 11 -51 31 -109 40 -121
43 -148 15 -173 -25 -22 -26 -35 -2 -35 28 0 88 70 106 125 9 29 33 67 55 90
22 22 57 66 79 98 l39 59 99 1 c89 2 104 5 147 30 27 16 57 43 68 60 23 38 25
96 4 123 -22 29 -18 34 26 34 74 0 153 56 165 119 4 18 18 32 45 44 l39 19
-20 28 c-11 15 -20 36 -20 45 0 14 -5 13 -30 -8 l-29 -25 -38 19 c-20 10 -50
19 -65 19 -21 0 -32 7 -40 25 -10 22 -13 23 -20 10 -5 -8 -22 -22 -38 -30
l-28 -15 31 70 c30 68 47 87 47 54 0 -12 9 -8 35 15 45 39 91 41 133 6 16 -14
33 -36 36 -49 l6 -24 29 29 c16 16 39 29 51 29 21 0 20 2 -9 35 -42 48 -42 95
-2 136 36 36 86 39 125 8 l26 -20 0 31 c0 29 -2 31 -32 25 -47 -8 -95 24 -103
69 -13 67 37 121 103 112 27 -4 32 -2 32 15 0 13 -7 19 -24 19 -31 0 -66 43
-66 80 0 34 33 78 63 82 30 4 33 35 7 63 -30 32 -31 92 -2 115 22 18 22 19 22
389 0 362 0 371 -20 371 -27 0 -44 34 -30 60 6 11 19 20 29 20 18 0 19 14 20
295 l1 295 -1600 0 -1600 0 0 -844z m2256 823 c10 -17 -13 -36 -27 -22 -12 12
-4 33 11 33 5 0 12 -5 16 -11z m207 -55 c-3 -8 -9 -14 -13 -14 -14 0 -22 20
-16 37 5 12 9 13 21 3 7 -6 11 -18 8 -26z m-2045 -67 c31 -56 75 -107 106
-124 10 -6 16 -15 13 -20 -8 -13 -94 -16 -102 -4 -3 5 5 7 17 5 13 -2 9 1 -9
7 -22 8 -35 21 -42 42 -14 40 -15 38 17 32 26 -5 26 -5 3 5 -34 15 -50 40 -51
78 0 46 14 40 48 -21z m2252 41 c0 -7 -4 -19 -9 -26 -6 -10 -10 -10 -20 2 -7
8 -10 20 -6 26 9 14 35 13 35 -2z m-1075 -28 c-5 -8 -11 -8 -17 -2 -6 6 -7 16
-3 22 5 8 11 8 17 2 6 -6 7 -16 3 -22z m1285 -10 c0 -14 -20 -22 -37 -16 -12
5 -13 9 -3 21 11 14 40 10 40 -5z m-1066 -9 c7 -11 -22 -23 -35 -15 -5 3 -7
10 -4 15 8 12 32 12 39 0z m1260 -17 c13 -5 14 -9 5 -20 -20 -25 -60 -10 -44
16 7 12 17 12 39 4z m-1064 -23 c0 -11 -4 -22 -9 -25 -12 -8 -34 21 -26 34 11
17 35 11 35 -9z m207 -37 c3 -8 1 -20 -6 -27 -14 -14 -47 15 -37 32 10 16 36
13 43 -5z m-1067 -19 c0 -8 -4 -15 -9 -15 -13 0 -22 16 -14 24 11 11 23 6 23
-9z m1264 -1 c20 -8 21 -28 2 -43 -17 -14 -41 11 -32 34 6 17 8 17 30 9z
m-1058 -25 c10 -17 -13 -36 -27 -22 -12 12 -4 33 11 33 5 0 12 -5 16 -11z
m1284 -37 c0 -13 -23 -32 -37 -32 -19 0 -27 28 -13 45 9 11 17 12 31 4 10 -5
19 -13 19 -17z m-2017 0 c16 -18 15 -19 -18 -29 -25 -8 -33 -8 -28 0 4 6 0 8
-10 4 -16 -6 -16 -5 -1 18 19 30 35 31 57 7z m944 -8 c1 -5 -2 -16 -7 -24 -12
-20 -35 2 -26 25 6 17 27 16 33 -1z m1271 -32 c4 -28 -24 -40 -45 -19 -21 21
-9 49 19 45 15 -2 24 -11 26 -26z m-2410 -5 c3 -16 -1 -18 -30 -13 -27 5 -29
4 -10 -4 24 -10 29 -26 11 -32 -6 -2 -14 -21 -18 -43 -3 -21 -12 -40 -20 -43
-19 -6 -10 136 10 149 22 14 53 6 57 -14z m274 -10 c40 -31 43 -37 43 -81 1
-47 -16 -86 -37 -86 -6 0 -1 12 13 26 l24 26 -40 -21 c-41 -22 -62 -25 -88
-15 -13 5 -11 12 9 42 37 54 40 79 14 106 -16 18 -18 25 -8 29 22 9 25 8 70
-26z m1077 -3 c-6 -8 -17 -14 -25 -14 -20 0 -27 19 -14 35 9 11 17 12 32 4 15
-8 17 -13 7 -25z m-1275 -15 c-10 -17 -40 -9 -40 10 0 16 4 17 23 8 12 -5 20
-14 17 -18z m2535 17 c9 -11 10 -20 1 -35 -13 -26 -22 -26 -45 -1 -15 16 -15
22 -5 35 16 19 34 19 49 1z m-2732 -14 c-10 -10 -17 -24 -17 -30 0 -7 -5 -12
-11 -12 -5 0 -8 4 -5 9 4 5 -3 7 -14 4 -34 -9 -23 22 13 34 48 15 52 15 34 -5z
m313 8 c24 -15 7 -18 -20 -3 -14 7 -18 13 -10 13 8 0 22 -4 30 -10z m1358 -24
c2 -10 -1 -23 -7 -29 -14 -14 -41 9 -41 35 0 26 43 21 48 -6z m-1168 4 c27
-15 62 -77 55 -98 -18 -58 -156 -156 -236 -168 -41 -6 -102 27 -97 53 2 14 16
17 73 17 109 1 151 34 172 131 7 32 12 39 28 37 16 -2 17 -1 6 7 -8 5 -20 7
-28 4 -7 -3 -13 2 -13 11 0 18 13 20 40 6z m-486 -60 c-4 -28 -10 -46 -14 -40
-5 8 -9 4 -13 -9 -3 -12 -10 -21 -15 -21 -9 0 19 97 35 123 11 18 14 -3 7 -53z
m274 35 c-2 -14 -7 -24 -11 -23 -5 2 -13 -5 -18 -14 -14 -24 -26 -22 -35 5
l-7 22 -10 -22 c-11 -24 -24 -27 -76 -17 -38 8 -44 41 -8 48 12 3 40 9 62 14
22 6 55 10 73 11 30 1 33 -2 30 -24z m312 -1 c0 -9 -5 -14 -12 -12 -18 6 -21
28 -4 28 9 0 16 -7 16 -16z m1275 0 c18 -18 16 -33 -7 -47 -35 -22 -66 21 -36
51 16 16 23 15 43 -4z m-1065 -33 c0 -11 -4 -22 -9 -25 -12 -8 -34 21 -26 34
11 17 35 11 35 -9z m1277 -7 c8 -22 -10 -49 -32 -49 -10 0 -22 7 -28 16 -15
24 -1 49 28 49 15 0 28 -7 32 -16z m-1069 -27 c4 -22 -27 -35 -38 -16 -10 15
7 42 24 36 6 -2 12 -11 14 -20z m1277 -16 c9 -31 -5 -52 -33 -49 -33 4 -50 31
-33 52 18 22 58 20 66 -3z m-1700 -128 c9 -13 15 -45 15 -75 0 -88 -54 -179
-123 -209 -16 -7 -11 -8 21 -3 31 4 42 2 42 -8 -1 -40 -45 -58 -148 -59 -72
-1 -74 -2 -37 -11 48 -11 131 -2 162 17 18 12 23 12 34 -1 17 -21 4 -29 -71
-48 l-65 -16 78 4 c56 2 77 0 77 -9 0 -26 -126 -33 -200 -11 -31 9 -52 23 -67
45 -21 30 -40 107 -30 117 3 3 23 -4 46 -15 59 -30 64 -25 8 8 -57 33 -87 83
-87 144 0 23 -4 57 -9 75 -9 29 -8 31 9 22 29 -16 85 -12 141 9 l51 20 13 -33
c8 -18 15 -56 17 -84 2 -29 6 -52 9 -52 4 0 14 -17 22 -37 9 -21 16 -31 16
-23 0 8 -8 33 -19 55 -11 22 -19 55 -20 73 0 18 -7 49 -15 68 l-15 35 55 54
c30 29 56 59 56 67 1 7 5 -12 10 -42 5 -30 16 -64 24 -77z m631 112 c6 -16
-12 -45 -27 -45 -12 0 -31 39 -24 50 10 15 45 12 51 -5z m-907 -21 c14 -12
-19 -1 -35 12 -18 14 -18 14 6 3 14 -6 27 -13 29 -15z m2167 18 c35 -24 15
-76 -27 -70 -16 2 -25 10 -27 26 -6 38 26 64 54 44z m-1050 -34 c9 -28 -20
-52 -47 -37 -22 11 -24 30 -7 47 19 19 46 14 54 -10z m1264 -13 c26 -32 -13
-81 -47 -59 -35 22 -23 74 17 74 10 0 23 -7 30 -15z m-1065 -6 c9 -13 6 -15
-33 -24 -32 -7 -33 -6 -23 14 12 22 45 28 56 10z m209 -45 c34 -34 14 -44 -36
-18 -24 12 -28 18 -17 25 21 13 36 11 53 -7z m-93 -29 c44 -15 46 -18 38 -43
-5 -15 -14 -53 -20 -84 -6 -32 -14 -58 -17 -58 -4 0 -23 5 -42 10 -39 12 -198
15 -230 5 -18 -6 -20 -2 -19 32 0 21 8 61 18 88 16 46 21 51 62 62 53 15 147
10 210 -12z m-977 6 c9 -13 -4 -41 -18 -41 -18 0 -35 21 -29 36 6 16 39 19 47
5z m1284 -35 c8 -39 -52 -63 -78 -31 -16 19 -5 62 18 68 22 5 56 -16 60 -37z
m-1078 -11 c0 -31 -26 -43 -47 -22 -13 13 -14 19 -3 31 21 26 50 20 50 -9z
m489 -2 c-6 -15 -13 -52 -17 -81 l-7 -54 -52 -18 c-58 -20 -101 -47 -151 -94
-24 -22 -31 -26 -26 -12 5 13 4 17 -4 12 -8 -5 -10 -2 -6 8 3 9 11 13 17 9 6
-3 7 -1 3 5 -9 15 22 75 34 67 6 -3 7 0 5 7 -11 27 161 178 202 178 10 0 10
-6 2 -27z m-819 -23 c36 -71 27 -114 -44 -189 -36 -39 -37 -42 -10 -23 17 12
48 38 68 59 l38 38 -4 -57 c-4 -48 -11 -65 -47 -112 -24 -31 -47 -56 -52 -56
-20 0 -7 27 34 69 42 44 38 46 -17 7 l-29 -20 -15 23 c-24 36 -21 70 10 103
34 36 52 98 45 155 -2 24 -3 43 -1 43 2 0 13 -18 24 -40z m1611 1 c6 -16 3
-27 -11 -41 -25 -25 -35 -25 -60 0 -25 25 -25 35 0 60 24 24 59 15 71 -19z
m-380 -11 c63 -53 139 -166 145 -214 2 -21 9 -47 15 -58 6 -11 14 -45 18 -75
6 -44 5 -53 -6 -49 -8 3 -11 2 -8 -3 3 -5 1 -12 -5 -16 -6 -4 -10 12 -11 42 0
26 -5 57 -10 68 -7 16 -8 14 -4 -10 4 -26 2 -24 -19 16 -32 59 -123 142 -181
164 -25 10 -45 21 -45 26 0 19 23 115 32 132 13 25 28 21 79 -23z m-697 14 c9
-8 16 -19 16 -24 0 -14 -30 -40 -45 -40 -18 0 -37 34 -29 54 3 8 13 17 22 19
10 3 18 5 19 6 1 0 9 -6 17 -15z m1274 -16 c34 -34 -14 -102 -56 -79 -26 14
-33 45 -15 70 16 23 52 28 71 9z m-2345 -29 c-17 -17 -37 -1 -22 17 8 10 15
12 23 4 7 -7 7 -13 -1 -21z m2547 -9 c23 -23 24 -33 10 -61 -12 -22 -59 -26
-78 -7 -17 17 -15 54 4 72 21 21 40 20 64 -4z m217 -56 c9 -25 -6 -61 -29 -67
-41 -11 -75 25 -62 65 12 39 76 40 91 2z m-1133 -36 c72 -20 156 -68 191 -108
11 -13 -2 -7 -30 15 -99 75 -222 110 -355 102 -121 -8 -194 -35 -295 -111
l-40 -30 34 36 c103 111 309 151 495 96z m-997 6 c3 -8 1 -20 -4 -25 -7 -7
-12 -2 -15 15 -6 28 9 36 19 10z m197 -20 c19 -18 19 -20 6 -45 -6 -11 -21
-19 -35 -19 -33 0 -47 47 -20 67 24 17 30 16 49 -3z m502 -19 c-5 -13 0 -15
32 -8 136 28 274 -30 221 -93 -35 -42 -162 -70 -245 -55 -27 5 -51 8 -53 5 -2
-2 -7 -36 -10 -75 -10 -99 3 -203 32 -261 26 -51 15 -66 -22 -29 -20 20 -43
126 -34 160 3 12 0 41 -6 64 -7 31 -7 63 0 106 7 45 7 67 -1 76 -13 16 0 47
28 67 11 7 24 23 31 36 13 25 36 31 27 7z m778 -7 c22 -31 20 -54 -6 -72 -42
-30 -88 -9 -88 39 0 52 65 74 94 33z m-2344 -7 c0 -14 -18 -23 -30 -16 -6 4
-8 11 -5 16 8 12 35 12 35 0z m1274 -7 c9 -8 16 -22 16 -29 0 -7 -7 -21 -16
-29 -30 -30 -74 -13 -74 29 0 42 44 59 74 29z m1270 5 c-41 -12 -90 -68 -103
-116 -5 -21 -15 -76 -21 -123 -14 -105 -36 -157 -89 -207 -40 -40 -134 -95
-181 -107 -14 -4 7 9 47 28 89 42 155 102 182 165 11 27 25 89 31 138 18 164
60 233 140 232 22 -1 22 -2 -6 -10z m90 -25 c3 -8 2 -12 -4 -9 -6 3 -10 10
-10 16 0 14 7 11 14 -7z m-2435 -36 c-10 -18 -12 -19 -27 -5 -13 13 -13 19 -2
32 19 23 44 0 29 -27z m2359 6 c4 -39 -27 -69 -63 -60 -33 8 -32 28 6 66 37
36 53 35 57 -6z m-1148 -4 c-11 -16 -26 -43 -32 -60 -5 -17 -12 -29 -14 -27
-8 8 19 72 39 95 29 31 32 28 7 -8z m1342 3 c51 -46 -11 -125 -69 -87 -22 14
-24 21 -20 52 9 53 51 70 89 35z m-2352 -45 c0 -10 -11 -10 -29 1 -9 6 -11 16
-7 27 7 18 8 18 22 0 8 -11 14 -23 14 -28z m426 -12 c-4 -19 -23 -53 -44 -76
-30 -33 -53 -47 -122 -70 -95 -32 -86 -38 21 -14 77 18 119 46 149 103 l19 36
1 -32 c0 -48 -28 -110 -64 -139 l-31 -26 35 19 c19 10 43 33 53 51 21 35 27
103 13 137 -4 11 4 1 18 -22 l26 -42 -20 -52 c-12 -29 -29 -64 -40 -79 -25
-36 -115 -83 -159 -83 -51 -1 -135 42 -139 71 -3 20 -1 21 23 12 60 -23 141
-6 176 36 13 16 12 16 -11 4 -63 -34 -180 -28 -216 11 -15 17 -13 17 48 17 38
-1 79 6 103 16 50 21 110 79 137 129 23 45 33 42 24 -7z m2134 14 c11 -11 20
-29 20 -40 0 -11 -9 -29 -20 -40 -39 -39 -100 -16 -100 37 0 57 61 82 100 43z
m-1666 -22 c-8 -26 -54 -85 -54 -69 0 21 22 67 37 79 23 17 25 15 17 -10z
m775 -154 c1 -92 -2 -125 -14 -140 -14 -18 -14 -16 -7 16 4 19 7 93 7 164 0
72 2 119 6 105 4 -13 7 -78 8 -145z m556 136 c-4 -12 -9 -19 -12 -17 -3 3 -2
15 2 27 4 12 9 19 12 17 3 -3 2 -15 -2 -27z m-238 3 c13 -5 14 -18 9 -75 -14
-138 -55 -216 -142 -267 -39 -24 -41 -19 -14 34 26 51 19 164 -12 209 -12 16
-23 49 -26 74 l-5 45 87 -7 c48 -4 94 -10 103 -13z m-1352 -33 c24 -27 7 -70
-29 -70 -31 0 -56 51 -36 75 17 21 44 19 65 -5z m192 14 c-3 -3 -12 -4 -19 -1
-8 3 -5 6 6 6 11 1 17 -2 13 -5z m1367 -29 c88 -26 90 -32 51 -152 -34 -107
-53 -143 -116 -228 -20 -27 -44 -74 -53 -103 -8 -28 -22 -62 -30 -74 -9 -12
-16 -38 -16 -58 0 -49 -14 -69 -29 -42 -23 43 -6 121 37 177 18 23 64 142 76
197 3 14 24 49 46 76 21 28 42 63 45 79 l5 28 -12 -26 c-7 -14 -28 -43 -47
-64 -34 -39 -61 -92 -61 -120 0 -8 -22 -62 -50 -119 -27 -57 -50 -109 -50
-115 0 -6 -4 -11 -10 -11 -5 0 -18 28 -27 62 -15 54 -22 64 -62 90 -25 15 -51
28 -58 28 -24 0 -14 19 19 36 17 9 56 39 85 66 58 56 88 119 98 210 12 100 9
97 60 87 24 -5 69 -15 99 -24z m-2092 -15 c18 -11 47 -20 63 -21 21 -1 15 -4
-20 -10 -53 -9 -69 -2 -78 31 -6 25 -5 25 35 0z m-545 -5 c5 -16 -14 -38 -26
-31 -18 12 -13 48 6 44 9 -2 18 -7 20 -13z m1266 -12 c13 -68 13 -68 -18 -71
-47 -6 -73 48 -39 82 25 25 51 20 57 -11z m-108 -101 c-1 -1 -8 11 -15 27 -8
19 -9 41 -4 58 7 25 8 22 14 -27 4 -30 6 -56 5 -58z m-130 -6 c20 -9 45 -32
60 -55 14 -23 32 -41 40 -41 18 0 18 -2 5 -71 -12 -65 -39 -131 -51 -123 -5 3
-34 -19 -64 -49 l-54 -55 19 39 c23 44 25 53 8 43 -7 -4 -8 -3 -4 5 4 6 11 9
16 6 4 -3 16 7 25 21 9 15 12 23 6 20 -17 -11 -14 0 20 62 l31 57 -31 -35
c-17 -19 -47 -65 -66 -103 -36 -67 -55 -78 -55 -32 0 17 -9 29 -30 40 l-30 15
26 58 c14 31 37 75 51 97 l26 40 -28 -25 c-15 -14 -37 -43 -48 -65 l-22 -40
-3 28 c-3 23 7 40 52 87 31 32 56 64 56 70 0 6 -24 -16 -52 -49 -53 -59 -53
-59 -70 -38 -16 21 -15 23 21 57 20 19 48 59 61 89 l25 54 13 -47 c11 -38 19
-49 47 -60z m-821 85 c9 -13 -4 -41 -18 -41 -18 0 -35 21 -29 36 6 16 39 19
47 5z m2027 -22 c-23 -25 -36 -88 -25 -121 6 -20 5 -21 -10 -9 -34 29 -3 151
39 151 13 0 12 -4 -4 -21z m-1818 -10 c15 -24 1 -49 -27 -49 -29 0 -44 33 -25
56 15 18 38 15 52 -7z m2391 -68 c54 -83 76 -140 75 -194 l-1 -42 -8 34 c-4
18 -22 48 -40 65 l-31 31 26 -47 c28 -50 46 -148 27 -148 -6 0 -13 10 -15 23
-2 12 -5 0 -6 -28 -1 -27 -6 -59 -10 -70 -7 -17 -13 -10 -41 44 -18 36 -57 91
-87 122 -53 56 -54 58 -40 86 8 15 20 46 27 68 7 22 21 64 32 93 23 63 27 61
92 -37z m170 37 c36 -51 2 -112 -57 -106 -25 2 -36 11 -51 39 -19 35 -19 38
-3 63 23 35 88 37 111 4z m-1674 -150 c0 -14 -32 7 -80 51 l-45 41 63 -42 c34
-23 62 -46 62 -50z m111 -14 c19 -18 53 -43 77 -58 23 -14 42 -31 42 -36 0 -5
30 -18 66 -30 49 -15 80 -18 119 -14 64 8 105 -1 105 -21 0 -8 -4 -15 -10 -15
-5 0 -10 8 -10 18 0 13 -2 14 -9 3 -7 -11 -34 -12 -132 -8 -68 3 -141 10 -162
17 -36 11 -37 13 -31 45 5 31 3 36 -27 54 -19 12 -41 21 -49 21 -41 1 -70 52
-54 95 5 13 10 11 24 -12 10 -15 33 -42 51 -59z m-1445 65 c10 -17 -23 -46
-37 -32 -7 7 -9 19 -6 27 7 18 33 21 43 5z m1259 -24 c31 -27 36 -35 21 -35
-24 0 -88 48 -81 61 9 14 17 11 60 -26z m-542 -1 c39 -15 72 -11 119 13 26 12
28 12 42 -15 17 -33 23 -113 12 -157 -4 -17 -4 -25 1 -18 13 18 58 -7 58 -32
1 -11 7 -32 15 -48 10 -21 11 -32 2 -50 -7 -12 -18 -40 -26 -62 l-15 -40 -1
60 c-1 43 -4 54 -10 40 -5 -11 -9 -33 -10 -50 l-1 -30 -34 40 c-31 36 -105
163 -105 180 0 3 10 3 23 0 20 -6 20 -5 -4 12 -40 27 -113 117 -100 121 6 2 0
12 -14 24 -29 22 -34 44 -7 33 9 -4 34 -14 55 -21z m-514 -8 c15 -18 -2 -56
-24 -56 -22 0 -39 38 -24 56 6 8 17 14 24 14 7 0 18 -6 24 -14z m1982 -90 c-6
-27 -66 -48 -146 -51 l-70 -3 43 19 c24 11 58 29 75 41 25 18 29 19 24 5 -12
-33 1 -16 34 41 l34 57 5 -45 c3 -25 3 -53 1 -64z m-994 25 c-1 -32 -5 -54 -8
-49 -4 6 -6 -9 -5 -32 1 -42 1 -42 12 -14 l12 29 7 -39 c6 -32 4 -42 -10 -53
-18 -13 -55 -18 -55 -8 0 3 7 22 15 42 24 57 16 63 -11 8 -25 -51 -25 -49 6
45 10 30 21 72 25 93 9 55 15 45 12 -22z m-783 36 c21 -16 18 -45 -6 -61 -35
-22 -74 27 -48 59 15 18 31 19 54 2z m845 -46 c-1 -9 -4 -27 -8 -41 -7 -24 -7
-24 -19 -5 -8 15 -12 16 -12 5 -1 -9 -5 -6 -10 8 -5 12 -7 35 -4 52 6 28 7 28
30 13 13 -8 24 -23 23 -32z m232 32 c13 -16 12 -17 -3 -4 -10 7 -18 15 -18 17
0 8 8 3 21 -13z m-867 -19 c30 -30 13 -74 -29 -74 -60 0 -59 88 2 90 6 0 19
-7 27 -16z m773 -10 c-9 -9 -28 6 -21 18 4 6 10 6 17 -1 6 -6 8 -13 4 -17z
m1592 -15 c11 -32 6 -54 -17 -81 -24 -28 -44 -23 -32 8 6 14 10 45 10 69 0 34
3 43 14 39 8 -3 19 -19 25 -35z m-1639 16 c13 -1 43 -24 32 -25 -22 0 -3 -19
51 -50 60 -34 56 -40 -6 -9 -47 24 -84 54 -99 83 -8 14 -7 17 4 10 7 -5 15 -9
18 -9z m226 -23 c-5 -4 -66 26 -66 33 0 3 16 -3 35 -12 19 -9 33 -18 31 -21z
m-300 -27 c-6 -55 -24 -105 -36 -105 -4 0 -2 18 6 40 8 21 17 57 20 80 10 60
18 48 10 -15z m152 44 c-2 -6 3 -14 11 -17 9 -3 11 0 6 8 -6 9 -3 9 14 1 17
-10 19 -16 11 -31 -8 -15 -16 -17 -32 -11 -32 12 -47 39 -28 51 19 12 21 12
18 -1z m1294 -46 c25 -27 53 -62 62 -80 29 -58 56 -133 47 -133 -4 0 -16 20
-26 45 -25 66 -89 157 -124 178 -17 10 -29 23 -26 28 10 16 19 10 67 -38z
m-1266 -69 c30 -13 61 -24 69 -24 11 0 10 -8 -7 -35 -16 -29 -25 -34 -42 -29
-55 17 -98 52 -139 114 -10 13 -17 19 -17 13 0 -7 14 -28 31 -48 26 -29 28
-35 13 -35 -19 0 61 -55 103 -71 13 -5 23 -14 23 -20 0 -8 6 -7 18 2 15 13 16
12 3 -3 -7 -10 -17 -16 -21 -13 -5 3 -11 1 -15 -5 -3 -5 -21 -17 -40 -26 -49
-23 -130 -114 -151 -170 -17 -45 -18 -46 -55 -41 -21 3 -45 12 -53 20 -8 8
-31 18 -50 21 -18 4 -40 13 -46 21 -7 9 -30 18 -51 21 -22 4 -39 10 -39 15 0
5 -7 6 -16 2 -14 -5 -16 -2 -10 20 13 54 26 78 67 121 42 47 71 60 151 72 26
3 46 10 43 14 -3 4 6 11 20 14 13 3 29 15 35 27 9 16 14 18 26 8 13 -10 13 -8
5 13 -5 14 -7 44 -4 67 l6 41 44 -41 c24 -22 69 -52 99 -65z m168 72 c-3 -8
-12 -12 -20 -9 -17 6 -9 23 11 23 8 0 12 -6 9 -14z m1067 -17 c28 -22 52 -57
81 -117 38 -78 42 -93 40 -151 -2 -36 -5 -67 -8 -70 -2 -2 -17 8 -32 22 -60
58 -95 31 -161 -122 -75 -176 -77 -202 -10 -216 33 -8 33 -7 17 -52 -14 -38
-25 -42 -30 -11 -2 12 -21 36 -44 53 l-41 30 4 175 c3 205 8 243 33 290 10 19
23 53 29 75 9 36 65 125 78 125 3 0 23 -14 44 -31z m-1210 -2 c-10 -9 -11 -8
-5 6 3 10 9 15 12 12 3 -3 0 -11 -7 -18z m189 8 c0 -9 -6 -12 -15 -9 -8 4 -12
10 -9 15 8 14 24 10 24 -6z m277 9 c-3 -3 -12 -4 -19 -1 -8 3 -5 6 6 6 11 1
17 -2 13 -5z m-217 -19 c0 -8 -9 -15 -20 -15 -11 0 -20 7 -20 15 0 8 9 15 20
15 11 0 20 -7 20 -15z m173 8 c-7 -2 -21 -2 -30 0 -10 3 -4 5 12 5 17 0 24 -2
18 -5z m-665 -28 c-3 -3 -9 2 -12 12 -6 14 -5 15 5 6 7 -7 10 -15 7 -18z m595
18 c-13 -2 -35 -2 -50 0 -16 2 -5 4 22 4 28 0 40 -2 28 -4z m141 -12 c5 -8
-94 -24 -102 -17 -2 3 16 9 40 14 58 13 56 13 62 3z m-2004 -15 c0 -25 -12
-46 -26 -46 -16 0 -37 37 -29 50 10 16 55 12 55 -4z m2052 -8 c-6 -6 -15 -8
-19 -4 -4 4 -1 11 7 16 19 12 27 3 12 -12z m48 18 c0 -3 -4 -8 -10 -11 -5 -3
-10 -1 -10 4 0 6 5 11 10 11 6 0 10 -2 10 -4z m180 -15 l25 -7 -27 -7 c-14 -4
-34 -9 -45 -13 -10 -3 -7 1 7 10 35 21 13 18 -35 -5 -24 -11 -30 -17 -15 -14
21 5 22 4 7 -5 -9 -6 -22 -8 -27 -5 -14 8 -52 -4 -45 -15 3 -4 -3 -6 -14 -3
-37 9 -70 -36 -102 -142 -33 -107 -40 -195 -20 -234 9 -17 10 -26 2 -34 -6 -6
-11 -18 -11 -26 1 -13 4 -12 16 4 15 19 15 19 8 -9 -5 -21 -4 -27 5 -22 17 11
13 -23 -8 -69 l-18 -40 -17 39 c-9 22 -19 51 -21 65 -5 24 -4 24 9 -4 9 -16
15 -25 16 -18 0 6 3 19 7 29 5 13 3 15 -7 9 -8 -5 -11 -4 -6 3 10 16 -4 63
-17 55 -6 -4 -8 0 -4 11 4 10 3 15 -3 11 -29 -18 14 290 46 328 l18 22 -23
-22 c-20 -18 -28 -45 -48 -160 -13 -76 -21 -146 -19 -155 2 -10 -1 -18 -6 -18
-13 0 -3 196 13 253 11 41 66 110 80 101 5 -3 24 6 41 19 36 27 162 76 193 75
11 0 31 -3 45 -7z m140 -41 c0 -17 -16 -11 -41 16 l-24 27 33 -17 c17 -9 32
-21 32 -26z m-2210 11 c20 -38 -13 -71 -51 -51 -21 12 -25 40 -7 58 18 18 46
14 58 -7z m932 -20 c-4 -13 -23 -30 -42 -37 l-34 -15 19 23 c48 57 60 69 63
60 1 -5 -1 -19 -6 -31z m868 30 c0 -11 -25 -21 -56 -21 -25 0 -33 15 -11 23
21 9 67 7 67 -2z m-393 -7 c-3 -3 -12 -4 -19 -1 -8 3 -5 6 6 6 11 1 17 -2 13
-5z m300 -16 c-3 -8 -6 -5 -6 6 -1 11 2 17 5 13 3 -3 4 -12 1 -19z m440 -3
l28 -24 -39 10 c-22 6 -60 8 -85 4 -46 -7 -125 -34 -118 -41 2 -3 20 3 40 11
50 21 143 19 192 -4 40 -18 106 -80 74 -68 -82 29 -100 30 -155 13 -75 -24
-97 -49 -91 -106 2 -25 7 -53 11 -62 6 -12 2 -18 -16 -21 -16 -3 -13 -5 12 -6
20 0 52 -13 73 -27 37 -25 120 -43 182 -40 29 1 30 -1 33 -43 5 -70 -1 -76
-50 -47 -79 45 -212 59 -273 30 -19 -9 -54 -38 -79 -64 -26 -27 -46 -43 -46
-36 0 17 31 58 89 119 62 65 34 60 -35 -7 l-55 -53 7 41 c3 22 11 49 16 60 7
13 7 16 -1 12 -19 -12 -13 72 9 113 20 40 96 113 143 137 39 21 33 26 -9 8
-63 -26 -114 -66 -140 -108 -23 -38 -24 -39 -18 -11 9 40 49 118 68 134 9 7
13 17 11 22 -10 15 127 77 172 78 12 1 35 -10 50 -24z m-489 0 c8 -7 -145 -5
-198 4 -29 5 -3 6 74 5 65 -2 121 -6 124 -9z m-1454 -14 c23 -25 13 -59 -20
-67 -30 -8 -54 11 -54 40 0 45 44 61 74 27z m629 -1 c-6 -24 -23 -37 -23 -18
0 12 18 38 26 38 1 0 0 -9 -3 -20z m531 -24 c-9 -15 -19 -24 -22 -22 -2 3 3
17 12 32 10 14 20 23 23 21 2 -3 -3 -17 -13 -31z m201 5 c89 -7 90 -7 50 -18
-22 -7 -58 -17 -80 -22 -37 -10 -36 -10 25 -8 45 2 83 11 122 29 l58 27 -30
-59 c-17 -33 -30 -69 -30 -80 0 -34 -20 -12 -21 23 -1 20 -3 24 -6 11 -2 -11
0 -47 6 -80 11 -73 6 -83 -10 -18 -7 27 -14 43 -17 36 -2 -7 3 -33 12 -59 9
-26 16 -77 16 -114 0 -51 8 -89 30 -151 17 -45 30 -85 30 -89 0 -17 -152 96
-171 127 -11 19 -23 34 -26 34 -3 0 2 -11 11 -25 16 -24 16 -24 -6 -16 -66 25
-107 33 -177 37 -89 5 -181 38 -181 67 0 49 49 123 113 169 30 22 173 66 247
77 39 6 31 8 -58 14 -56 5 -107 5 -113 1 -7 -4 -10 -1 -7 7 3 9 26 16 64 19
l59 5 -52 8 c-55 8 -60 14 -42 49 9 18 16 19 52 13 23 -5 83 -11 132 -14z
m1219 -66 c0 -42 -26 -72 -69 -80 -56 -10 -59 4 -19 89 l37 78 25 -26 c18 -18
26 -36 26 -61z m-2383 65 c22 -12 26 -59 7 -78 -7 -7 -24 -12 -38 -12 -48 0
-67 45 -33 82 18 20 36 23 64 8z m1474 -26 c-14 -21 -34 -67 -46 -103 -17 -55
-19 -80 -13 -153 4 -58 3 -88 -4 -88 -15 0 -32 57 -32 106 0 39 49 213 67 240
7 9 42 33 50 34 1 0 -9 -16 -22 -36z m-1257 -16 c7 -7 12 -26 12 -43 0 -38
-16 -55 -51 -55 -52 0 -79 59 -43 94 18 19 65 21 82 4z m740 -69 c-112 -16
-166 -61 -224 -184 -19 -38 -31 -56 -27 -40 16 79 98 184 168 216 23 11 61 18
90 18 l50 -1 -57 -9z m672 -18 c-13 -26 -13 -67 1 -93 6 -11 7 -18 1 -14 -5 3
-15 19 -22 36 -10 24 -10 36 0 60 7 17 17 30 22 30 5 0 4 -9 -2 -19z m-2076
-17 c22 -21 20 -40 -6 -58 -27 -19 -58 -5 -58 27 0 43 35 60 64 31z m210 -30
c31 -30 9 -84 -34 -84 -24 0 -50 26 -50 50 0 24 26 50 50 50 10 0 26 -7 34
-16z m2558 -24 c27 -27 30 -36 25 -73 -6 -46 -35 -77 -71 -77 -19 0 -21 5 -20
68 1 104 3 112 20 112 8 0 29 -14 46 -30z m-2350 -7 c38 -34 15 -93 -37 -93
-51 0 -73 53 -38 92 20 22 51 23 75 1z m190 -24 c-3 -20 -8 -27 -14 -21 -11
11 -2 52 11 52 4 0 6 -14 3 -31z m41 -1 c-6 -31 -23 -38 -23 -10 0 16 20 46
26 39 1 -1 0 -14 -3 -29z m61 24 c-6 -4 -17 -18 -23 -30 -16 -29 -26 -22 -17
13 4 17 13 25 29 25 13 0 17 -3 11 -8z m1914 -12 c42 -26 41 -34 -2 -13 -19 9
-40 13 -48 11 -19 -8 -110 -214 -106 -241 2 -16 11 -23 33 -25 17 -1 45 -5 64
-8 29 -5 32 -7 20 -19 -12 -12 -23 -12 -73 3 -33 10 -64 25 -70 34 -18 30 109
278 143 278 3 0 21 -9 39 -20z m-1892 -16 c-9 -8 -16 -20 -16 -26 0 -6 -3 -9
-6 -5 -10 10 7 47 22 47 13 0 13 -2 0 -16z m-169 -26 c-3 -7 -5 -2 -5 12 0 14
2 19 5 13 2 -7 2 -19 0 -25z m370 -24 c20 -13 24 -22 21 -57 -4 -54 -33 -62
-66 -18 -16 21 -39 35 -77 46 -41 12 -55 21 -55 35 0 10 5 22 10 25 6 4 8 10
5 15 -7 12 135 -28 162 -46z m-186 19 c-12 -20 -14 -14 -5 12 4 9 9 14 11 11
3 -2 0 -13 -6 -23z m1879 10 c14 -9 28 -22 32 -27 15 -22 7 -72 -23 -137 l-31
-67 -57 5 c-31 3 -59 10 -62 16 -9 13 3 50 35 113 14 29 26 55 26 58 0 14 33
56 44 56 6 0 23 -8 36 -17z m-1985 -49 c-9 -7 -23 -30 -30 -51 -13 -35 -14
-36 -15 -10 0 16 5 38 12 50 10 20 10 21 -5 9 -9 -8 -18 -26 -20 -40 -2 -15
-3 -10 -1 12 3 44 -10 37 -24 -14 -7 -24 -10 -28 -11 -13 -1 12 4 33 10 46 9
20 18 24 56 23 38 0 42 -2 28 -12z m-115 -24 c-7 -12 -10 -31 -7 -41 3 -10 1
-17 -4 -13 -13 8 -11 58 3 72 17 17 21 7 8 -18z m683 -97 c4 -3 7 3 7 15 0 26
11 27 50 7 l29 -15 -37 -42 c-20 -24 -66 -70 -101 -104 -57 -54 -63 -64 -59
-92 4 -26 1 -32 -13 -32 -26 0 -50 11 -44 20 8 13 -34 48 -72 62 -34 12 -41
22 -23 33 6 3 10 11 10 17 0 6 -10 3 -22 -8 l-23 -19 18 21 c11 13 27 20 42
19 17 -2 22 1 18 11 -3 9 1 14 12 14 25 0 161 143 177 186 l13 37 6 -62 c3
-34 9 -64 12 -68z m-405 93 c30 -15 72 -85 72 -119 0 -13 -9 -17 -37 -17 -29
0 -42 7 -65 33 l-28 32 11 -30 c5 -16 15 -35 21 -42 7 -9 7 -13 0 -13 -6 0
-20 13 -31 29 -15 21 -33 31 -61 36 -40 7 -64 25 -41 33 8 3 7 7 -4 16 -15 11
-14 14 6 40 21 26 26 28 75 23 28 -3 65 -12 82 -21z m226 5 c9 -10 36 -22 59
-26 37 -6 40 -8 23 -18 -10 -7 -30 -22 -45 -33 l-26 -22 0 30 c0 20 -7 34 -20
42 -34 19 -47 46 -22 46 8 0 22 -8 31 -19z m-1065 -15 c7 -8 11 -27 9 -43 -2
-23 -8 -29 -35 -31 -24 -2 -34 2 -43 18 -23 44 39 93 69 56z m524 -30 c6 -36
5 -38 -10 -24 -11 11 -13 25 -9 43 9 34 12 31 19 -19z m402 -7 c9 -16 12 -29
7 -29 -7 0 -20 20 -40 64 -11 23 20 -9 33 -35z m-715 1 c11 -11 20 -27 20 -35
0 -20 -36 -55 -57 -55 -23 0 -53 30 -53 53 0 26 28 57 52 57 10 0 27 -9 38
-20z m297 -47 c9 -7 12 -13 6 -13 -21 0 -43 31 -42 58 l1 27 9 -30 c5 -16 16
-36 26 -42z m560 40 c4 -10 -3 -24 -21 -40 -36 -31 -52 -29 -27 3 12 15 21 33
21 40 0 19 19 17 27 -3z m1698 -6 c18 -15 28 -36 32 -64 5 -37 2 -45 -25 -73
-24 -23 -39 -30 -71 -30 -22 0 -42 4 -45 9 -4 5 10 42 29 82 19 41 35 79 35
86 0 19 16 16 45 -10z m-2354 -7 c14 -8 19 -21 19 -48 0 -45 -14 -62 -51 -62
-35 0 -59 24 -59 57 0 51 45 77 91 53z m688 -50 c-23 -27 -47 -50 -52 -50 -11
0 23 42 63 77 38 34 35 28 -11 -27z m1156 15 c89 -31 115 -59 115 -124 0 -63
-27 -152 -52 -172 -19 -15 -39 -16 -103 -4 -16 3 -55 1 -85 -4 -55 -10 -54
-10 25 -7 79 4 79 4 40 -10 -29 -10 -32 -12 -10 -8 17 3 39 7 50 10 15 4 14 1
-5 -10 l-25 -15 37 2 c20 2 41 7 45 11 5 5 0 6 -12 2 -11 -4 -16 -3 -11 1 4 4
18 8 32 8 l24 1 -21 -22 c-39 -42 -72 -48 -165 -34 -98 14 -193 57 -223 99
-11 15 -25 47 -30 70 -8 37 -7 45 10 62 15 15 34 19 102 20 66 0 77 2 57 10
-14 6 -53 9 -88 7 l-62 -4 57 33 c32 18 75 36 96 39 20 4 40 10 42 15 6 9 -56
2 -99 -12 l-29 -9 19 21 c48 55 155 64 269 24z m-1780 -14 l20 -24 -22 12
c-13 6 -23 19 -23 28 0 9 1 14 3 12 1 -2 11 -15 22 -28z m929 -6 c-10 -15 -14
-37 -12 -55 4 -24 1 -29 -11 -26 -73 22 -112 11 -150 -43 -41 -58 -38 -103 13
-160 20 -23 19 -22 -24 4 -64 39 -80 55 -80 79 0 14 37 57 105 124 93 90 109
102 140 102 l35 0 -16 -25z m-767 9 c-3 -3 -12 -4 -19 -1 -8 3 -5 6 6 6 11 1
17 -2 13 -5z m859 -9 c-43 -15 -56 -29 -56 -62 0 -26 -15 -31 -24 -7 -9 24 -8
29 15 58 16 21 29 26 62 26 l42 -1 -39 -14z m-452 -10 c-10 -25 -64 -48 -64
-27 0 5 15 15 33 24 17 8 33 16 34 17 1 0 0 -6 -3 -14z m-401 -2 c-7 -2 -21
-2 -30 0 -10 3 -4 5 12 5 17 0 24 -2 18 -5z m307 -6 c0 -21 -33 -47 -74 -58
-42 -12 -114 4 -123 27 -8 23 4 28 22 10 9 -9 27 -19 40 -22 32 -8 93 13 108
37 14 22 27 25 27 6z m687 -22 c29 -19 57 -44 63 -55 18 -33 -6 -91 -25 -60
-3 6 -15 10 -25 10 -11 0 -48 16 -83 35 -35 19 -72 35 -82 35 -16 0 -16 2 -3
23 18 26 54 47 83 47 11 0 44 -16 72 -35z m-1116 -7 c16 0 27 -4 24 -9 -10
-15 -67 -10 -87 8 -27 24 -22 36 8 17 14 -9 38 -17 55 -16z m199 -7 c0 -13 -9
-20 -27 -23 -16 -3 -37 -9 -48 -14 -19 -8 -19 -7 -4 16 14 21 39 35 72 39 4 1
7 -7 7 -18z m290 -11 c0 -5 -5 -10 -11 -10 -5 0 -7 5 -4 10 3 6 8 10 11 10 2
0 4 -4 4 -10z m-1050 -30 c23 -23 24 -33 10 -61 -12 -22 -59 -26 -78 -7 -17
17 -15 54 4 72 21 21 40 20 64 -4z m610 13 c0 -2 -11 -10 -25 -19 -21 -14 -30
-14 -55 -4 -44 18 -37 25 25 25 30 0 55 -1 55 -2z m1910 -82 c8 -30 6 -41 -20
-82 -16 -26 -34 -65 -41 -88 -11 -39 -14 -41 -49 -39 -20 1 -43 -3 -51 -7 -9
-6 -8 -1 4 15 31 43 56 103 69 163 7 31 15 57 19 57 9 0 43 -47 52 -70 4 -12
6 -11 6 2 1 10 -14 35 -32 55 -22 26 -31 46 -29 62 l4 23 29 -28 c16 -15 33
-44 39 -63z m-1880 70 c0 -20 -33 -41 -63 -40 l-32 1 35 8 c19 5 39 16 45 24
11 18 15 20 15 7z m130 1 c-8 -3 11 -11 45 -18 l60 -11 -51 -2 c-52 -1 -120
19 -107 32 3 4 20 7 37 6 18 0 25 -3 16 -7z m214 -7 c-4 -8 -18 -15 -33 -15
l-26 1 30 14 c17 7 31 14 32 14 1 1 0 -6 -3 -14z m436 5 c11 -7 3 -10 -28 -10
-32 0 -49 -6 -67 -25 -47 -46 -25 -151 36 -170 11 -4 18 -9 15 -12 -8 -9 -95
46 -106 67 -36 67 21 160 97 160 21 0 45 -5 53 -10z m136 -18 c113 -62 138
-98 96 -136 -18 -15 -20 -15 -37 4 -27 30 -73 39 -125 23 -24 -7 -50 -11 -58
-8 -8 3 -10 0 -6 -6 4 -7 24 -9 53 -5 32 4 40 3 26 -3 -33 -16 -81 -12 -98 7
-44 49 -24 101 48 127 53 19 64 18 101 -3z m224 -5 c0 -13 -7 -32 -16 -43 -15
-18 -15 -18 -5 3 6 12 11 31 11 42 0 12 2 21 5 21 3 0 5 -10 5 -23z m-1570 -7
c11 -11 20 -29 20 -40 0 -25 -34 -60 -59 -60 -27 0 -63 48 -55 74 14 46 61 59
94 26z m1162 -43 c-3 -41 0 -51 26 -77 32 -32 29 -37 -12 -19 -23 11 -39 38
-49 84 -3 11 -5 4 -6 -16 -1 -23 7 -47 20 -65 19 -26 18 -25 -10 4 -37 39 -40
78 -10 116 30 38 45 28 41 -27z m-954 17 c30 -21 30 -77 0 -98 -31 -22 -64
-20 -88 4 -58 58 20 142 88 94z m288 -9 c-9 -14 -23 -36 -32 -50 -14 -22 -44
-35 -44 -19 0 3 16 26 36 50 39 47 67 61 40 19z m251 17 c8 -5 8 -12 -3 -26
-12 -17 -17 -18 -39 -8 -30 14 -59 3 -87 -32 -34 -41 -20 -78 35 -91 28 -7 32
-25 7 -33 -8 -3 -10 0 -5 8 6 10 1 11 -19 6 -16 -4 -25 -3 -22 2 3 5 -12 17
-34 27 -22 10 -40 23 -40 28 0 11 41 77 69 110 10 12 29 17 70 17 31 0 61 -4
68 -8z m872 -31 c0 -10 -2 -11 -6 -3 -2 6 -11 12 -19 12 -8 0 -11 6 -8 15 8
20 34 0 33 -24z m-1190 -10 c-19 -22 -38 -40 -44 -40 -5 -1 9 17 30 39 50 51
57 52 14 1z m115 27 c-4 -7 -19 -29 -33 -48 -14 -19 -26 -37 -28 -39 -2 -2 -6
-2 -9 2 -8 7 54 97 67 97 6 0 7 -6 3 -12z m15 -35 c-42 -69 -49 -79 -49 -62 0
15 57 99 67 99 2 0 -6 -17 -18 -37z m931 17 c12 -22 -7 -79 -37 -112 -11 -12
-12 -18 -4 -18 7 0 25 28 41 63 20 42 29 55 30 39 0 -29 -15 -59 -48 -94 -25
-27 -50 -39 -37 -18 3 6 -2 10 -12 10 -16 1 -17 1 -1 10 31 19 61 79 54 111
-6 34 -1 37 14 9z m200 -2 c0 -47 22 -97 61 -141 51 -59 163 -117 225 -117 83
0 43 -39 -82 -80 -77 -25 -83 -28 -43 -25 25 2 58 9 72 14 19 7 27 7 27 0 0
-18 -81 -47 -180 -64 -108 -20 -164 -39 -85 -29 47 5 49 4 30 -10 -15 -12 -36
-14 -85 -11 -45 3 -57 2 -40 -4 14 -5 41 -10 60 -10 l35 -2 -36 -19 c-61 -32
-127 -35 -179 -8 -65 33 -90 76 -90 154 0 57 3 67 31 99 41 46 59 46 60 -2 0
-33 2 -29 18 30 12 48 27 77 51 102 19 19 37 30 40 25 3 -5 14 9 25 32 18 41
59 88 76 88 5 0 9 -10 9 -22z m-850 -4 c22 -9 40 -23 40 -31 0 -9 -6 -13 -13
-10 -8 3 -18 2 -24 -1 -21 -14 -73 -96 -73 -115 0 -13 -5 -17 -16 -13 -9 3
-27 9 -40 12 -15 4 -24 13 -24 25 0 14 -9 21 -30 25 -44 9 -56 28 -36 59 24
37 50 47 82 33 24 -11 29 -10 43 9 19 27 38 28 91 7z m-470 1 c0 -4 -16 -22
-35 -42 -33 -34 -35 -35 -35 -13 0 29 27 60 52 60 10 0 18 -2 18 -5z m1220
-15 c13 -8 13 -11 -2 -27 -10 -9 -18 -12 -18 -6 0 6 -3 18 -6 27 -7 18 4 20
26 6z m-40 -34 c0 -16 -76 -109 -94 -115 -6 -2 3 12 20 30 18 19 39 49 48 67
18 35 26 40 26 18z m-1099 -47 c30 -12 72 -30 94 -39 22 -10 48 -20 58 -23 25
-9 21 -34 -8 -53 -14 -9 -25 -23 -25 -31 0 -7 -13 -40 -30 -71 -16 -31 -34
-81 -40 -109 -11 -49 -14 -53 -41 -53 -24 0 -32 7 -50 43 -12 23 -29 50 -39
59 -30 28 -46 148 -31 221 7 34 15 65 17 69 8 13 39 9 95 -13z m397 -24 c-33
-44 -48 -55 -48 -33 0 19 50 78 66 78 10 0 5 -13 -18 -45z m48 -2 c-14 -21
-35 -49 -46 -63 -19 -24 -20 -24 -20 -4 0 22 78 119 88 110 3 -3 -7 -23 -22
-43z m63 15 c-7 -13 -24 -39 -39 -58 -15 -19 -29 -40 -31 -47 -2 -7 -9 -9 -17
-4 -10 6 -2 23 28 69 23 34 48 62 56 62 12 0 13 -4 3 -22z m-1201 0 c15 -15
15 -61 0 -76 -15 -15 -61 -15 -76 0 -18 18 -15 65 6 77 23 14 55 14 70 -1z
m834 -26 c-14 -4 -62 16 -62 28 0 5 16 2 36 -7 19 -10 31 -19 26 -21z m738 17
c10 -17 7 -28 -14 -60 -27 -40 -40 -47 -52 -28 -3 6 -15 9 -25 6 -10 -3 -33 6
-50 19 l-33 24 33 0 c23 0 44 10 68 30 40 35 58 38 73 9z m-320 2 c0 -17 -75
-120 -87 -121 -22 0 -14 23 25 77 34 47 62 67 62 44z m-1045 -36 c29 -28 31
-42 9 -73 -30 -44 -114 -18 -114 36 0 18 46 62 65 62 9 0 27 -11 40 -25z
m1045 -49 c-56 -74 -72 -61 -18 15 26 37 45 56 51 50 6 -6 -7 -30 -33 -65z
m1435 62 c-11 -6 -26 -18 -32 -26 -7 -9 -13 -11 -13 -5 0 17 29 43 48 43 14
-1 14 -3 -3 -12z m-2125 -5 c0 -17 -17 -32 -43 -38 -15 -4 -30 -11 -33 -16 -7
-12 -24 -11 -24 1 0 5 17 21 37 35 37 25 63 32 63 18z m2057 -40 c-3 -10 -5
-4 -5 12 0 17 2 24 5 18 2 -7 2 -21 0 -30z m-2237 18 c0 -6 -4 -13 -10 -16 -5
-3 -10 -17 -10 -29 0 -24 -42 -61 -54 -49 -16 16 -4 63 20 82 28 22 54 28 54
12z m950 2 c0 -4 -18 -28 -40 -54 -22 -26 -40 -53 -40 -59 0 -6 -5 -8 -11 -5
-14 9 -5 30 34 82 28 37 57 56 57 36z m310 -45 c0 -5 -6 -8 -12 -7 -30 4 -38
-3 -38 -30 0 -40 -13 -45 -40 -16 l-23 24 32 31 c17 17 31 36 31 43 0 6 11 0
25 -13 14 -13 25 -27 25 -32z m1106 38 c29 -22 13 -26 -21 -5 -17 11 -23 19
-14 19 8 0 24 -6 35 -14z m-1813 -24 c16 -7 32 -12 37 -12 4 0 48 -12 96 -26
87 -25 274 -124 274 -145 0 -5 -13 -9 -29 -9 -43 0 -223 -48 -301 -80 -39 -16
-72 -25 -75 -19 -10 16 -41 10 -79 -16 -36 -25 -38 -25 -67 -8 -16 10 -29 22
-29 28 1 5 20 57 44 115 29 70 51 109 66 116 15 8 18 13 8 16 -11 4 -10 8 1
22 13 15 13 19 0 27 -19 12 16 6 54 -9z m106 2 c2 -2 1 -7 -2 -11 -4 -3 -22 1
-40 10 l-32 16 35 -6 c19 -3 37 -7 39 -9z m-489 -1 c-1 -5 -21 -18 -46 -29
-52 -25 -55 -10 -4 18 37 19 50 22 50 11z m816 -28 c-9 -14 -21 -25 -27 -25
-6 0 -1 14 11 31 26 36 40 31 16 -6z m48 17 c7 -12 -23 -54 -34 -47 -5 3 -4
16 2 30 12 26 23 31 32 17z m821 -7 c22 0 54 3 70 8 l30 7 -29 -25 c-32 -29
-59 -28 -131 6 -32 15 -34 17 -10 11 17 -4 48 -7 70 -7z m507 -10 c8 -19 8
-31 0 -50 -14 -30 -32 -33 -25 -4 4 12 -3 32 -16 50 l-22 29 26 0 c17 0 29 -8
37 -25z m-53 -21 c9 -20 8 -31 -4 -54 -9 -17 -22 -30 -31 -30 -11 0 -12 4 -4
19 13 25 13 68 0 76 -14 9 -2 25 14 19 7 -3 18 -16 25 -30z m-1851 -13 c-12
-22 -24 -38 -26 -37 -5 6 19 61 31 68 19 12 19 10 -5 -31z m591 -3 c-7 -13
-14 -18 -16 -11 -3 7 1 22 8 35 7 13 14 18 16 11 3 -7 -1 -22 -8 -35z m-879
24 c0 -6 -26 -20 -75 -39 -5 -3 3 7 18 21 27 25 57 34 57 18z m959 -18 c9 -20
9 -30 -1 -43 -10 -13 -10 -14 2 -3 16 14 30 16 30 3 0 -5 -8 -12 -17 -15 -22
-9 -43 18 -43 56 0 35 13 36 29 2z m102 -1 c-8 -15 -10 -15 -11 -2 0 17 10 32
18 25 2 -3 -1 -13 -7 -23z m799 -7 c0 -12 -6 -30 -13 -39 -10 -15 -12 -11 -9
28 4 45 22 54 22 11z m50 -1 c0 -13 -4 -27 -10 -30 -6 -4 -10 8 -10 30 0 22 4
34 10 30 6 -3 10 -17 10 -30z m58 8 c2 -11 -4 -25 -12 -32 -12 -10 -14 -6 -14
24 0 38 21 45 26 8z m118 -8 c8 -33 -12 -65 -42 -65 -24 0 -24 1 -8 24 8 14
15 33 14 43 -3 29 -1 33 15 27 8 -4 18 -17 21 -29z m-283 -46 c-5 -5 -6 11 -3
34 4 41 5 41 8 8 2 -18 0 -37 -5 -42z m-1066 31 c-7 -17 -13 -26 -15 -21 -3
10 15 51 22 51 3 0 -1 -14 -7 -30z m1265 -12 c-6 -6 -7 0 -4 19 5 21 7 23 10
9 2 -10 0 -22 -6 -28z m-2002 22 c0 -5 -6 -10 -12 -10 -7 0 -24 -9 -38 -20
-14 -11 -20 -20 -15 -19 6 0 19 6 29 14 11 8 27 15 35 15 14 0 -55 -49 -70
-50 -4 0 -6 10 -5 21 1 14 14 29 36 40 40 22 40 22 40 9z m901 -13 c-10 -9
-11 -8 -5 6 3 10 9 15 12 12 3 -3 0 -11 -7 -18z m-59 -15 c10 -8 15 -19 12
-23 -3 -5 1 -6 9 -3 7 2 24 -3 36 -13 19 -16 21 -22 11 -47 -9 -23 -13 -26
-25 -16 -8 7 -15 20 -15 29 0 12 -2 13 -9 3 -6 -10 -16 -4 -39 23 -52 58 -36
95 20 47z m-81 -19 c-9 -16 -10 -14 -11 12 0 21 3 26 11 18 8 -8 8 -16 0 -30z
m999 0 c-11 -17 -11 -17 -6 0 3 10 6 24 7 30 0 9 2 9 5 0 3 -7 0 -20 -6 -30z
m-2348 0 c22 -20 23 -56 2 -77 -22 -23 -71 -20 -84 3 -33 63 30 121 82 74z
m2320 -15 c-8 -8 -9 -4 -5 13 4 13 8 18 11 10 2 -7 -1 -18 -6 -23z m-1703 -37
c12 -41 11 -46 -6 -58 -21 -16 -62 -28 -69 -20 -10 9 -23 80 -17 90 10 16 67
47 74 39 3 -4 11 -27 18 -51z m216 22 c-18 -42 -25 -52 -25 -34 0 14 28 71 35
71 3 0 -2 -17 -10 -37z m795 -9 c-5 -41 -8 -47 -47 -64 -23 -10 -43 -16 -46
-14 -2 2 -1 21 2 41 5 28 15 43 40 60 50 34 58 30 51 -23z m-1412 -3 c7 -9 12
-29 10 -46 -6 -59 -92 -74 -116 -20 -31 67 60 125 106 66z m2361 -4 c-2 -2
-17 -11 -34 -21 l-30 -17 24 20 c13 12 28 21 34 21 6 0 8 -1 6 -3z m-1053 -49
c-1 -29 2 -33 24 -32 14 0 36 4 50 8 23 6 28 3 44 -31 12 -25 14 -39 7 -41 -6
-2 -9 -8 -6 -13 4 -5 -1 -6 -9 -3 -9 3 -29 1 -45 -4 -27 -10 -29 -8 -35 20 -4
18 -14 32 -26 35 -20 5 -27 43 -14 77 9 24 12 19 10 -16z m894 24 c0 -4 -7
-18 -16 -30 -13 -19 -22 -22 -47 -17 -56 11 -126 38 -121 47 7 10 184 11 184
0z m188 -8 c12 -4 22 -10 22 -15 0 -5 -11 -4 -25 1 -14 5 -33 7 -42 4 -15 -5
-16 -4 -3 5 18 13 18 13 48 5z m-1211 -26 c-3 -8 -6 -5 -6 6 -1 11 2 17 5 13
3 -3 4 -12 1 -19z m1093 7 c17 -20 4 -35 -31 -35 -33 0 -34 2 -17 30 15 24 31
25 48 5z m-1820 -38 c0 -16 -18 3 -23 25 -6 22 -5 22 8 4 8 -11 15 -24 15 -29z
m637 21 c-18 -19 -23 -20 -28 -8 -4 10 1 17 15 22 35 10 36 9 13 -14z m128 12
c3 -5 1 -10 -4 -10 -6 0 -11 5 -11 10 0 6 2 10 4 10 3 0 8 -4 11 -10z m782
-33 c-8 -19 -20 -38 -26 -42 -6 -3 -1 14 11 39 25 53 36 55 15 3z m-940 -32
c16 -64 16 -85 -1 -85 -8 0 -20 24 -30 65 -20 79 -20 77 1 73 11 -2 21 -21 30
-53z m978 22 c-4 -14 -16 -34 -27 -44 -12 -10 -19 -13 -16 -8 31 69 40 86 44
82 3 -2 2 -16 -1 -30z m353 21 c12 -12 17 -58 6 -58 -3 0 -15 11 -26 25 -11
14 -26 25 -34 25 -8 0 -14 5 -14 10 0 14 54 12 68 -2z m-1998 -38 c-21 -18
-39 -25 -44 -20 -11 11 -11 12 34 38 46 29 53 17 10 -18z m620 -17 c7 -32 15
-64 17 -70 3 -8 -3 -13 -15 -13 -17 0 -23 11 -34 63 -15 66 -14 77 6 77 7 0
18 -24 26 -57z m260 43 c0 -32 -13 -46 -41 -46 -16 0 -29 5 -29 13 0 8 -4 7
-10 -3 -8 -12 -10 -9 -10 12 0 23 5 27 33 31 17 2 38 5 45 5 6 1 12 -4 12 -12z
m-296 -99 c5 -23 3 -29 -19 -37 -42 -16 -52 -12 -58 23 -3 17 -9 47 -13 65 -5
26 -3 32 10 32 8 0 18 -10 21 -22 3 -13 9 -41 14 -63 6 -28 9 -32 10 -15 0 14
-4 42 -10 64 -8 31 -8 41 3 47 13 8 21 -11 42 -94z m196 83 c0 -22 -28 -27
-61 -10 -31 17 -22 30 21 30 33 0 40 -3 40 -20z m899 -9 c-6 -17 -17 -35 -24
-41 -11 -9 -10 -1 3 29 19 47 36 56 21 12z m29 -37 c-7 -15 -19 -29 -25 -32
-8 -2 -4 15 10 42 12 26 23 40 25 31 2 -8 -3 -27 -10 -41z m54 34 c5 -32 -10
-75 -29 -82 -23 -9 -25 -2 -8 30 8 16 15 39 15 52 0 12 4 22 9 22 5 0 11 -10
13 -22z m179 12 c20 -11 27 -64 9 -75 -5 -3 -10 1 -10 10 0 9 -7 29 -15 45
-17 32 -14 36 16 20z m-1996 -31 c9 -17 14 -33 11 -36 -4 -4 -36 49 -36 62 0
13 11 2 25 -26z m1865 -8 c0 -16 -9 -39 -21 -52 -18 -21 -20 -21 -13 -4 4 11
9 37 12 57 5 43 22 42 22 -1z m-1708 15 c74 -16 174 -67 182 -94 2 -9 7 -33
10 -52 l6 -35 -15 30 c-8 17 -14 35 -15 41 -1 24 -40 51 -84 57 -25 4 -66 16
-91 28 l-46 22 -40 -39 c-32 -31 -39 -35 -39 -19 0 25 8 36 40 57 14 9 25 17
25 17 0 1 30 -5 67 -13z m386 -42 c14 -48 15 -74 4 -74 -9 0 -41 118 -34 125
9 8 18 -7 30 -51z m1370 32 c6 -27 -18 -76 -36 -76 -12 0 -13 3 -4 12 7 7 12
29 12 51 0 40 21 49 28 13z m46 8 c10 -25 7 -59 -6 -72 -20 -20 -23 -14 -20
38 4 50 14 64 26 34z m-1194 -47 c0 -38 -9 -30 -20 18 -7 30 -6 34 6 24 8 -6
14 -25 14 -42z m210 38 c6 -8 9 -23 5 -36 -6 -17 -9 -19 -16 -8 -5 8 -6 22 -3
32 3 9 1 17 -5 17 -5 0 -8 -18 -7 -40 4 -45 -7 -58 -30 -39 -12 10 -13 9 -8
-6 9 -22 -19 -45 -53 -45 -30 0 -29 15 0 35 13 8 38 35 56 60 35 49 42 53 61
30z m-575 -5 c3 -5 -8 -16 -25 -25 -35 -18 -41 -5 -7 18 27 19 25 19 32 7z
m114 -48 c8 -29 12 -54 10 -56 -2 -2 -23 -6 -46 -9 -43 -5 -43 -5 -55 35 -11
39 -11 42 16 65 41 35 59 27 75 -35z m-374 28 c16 -11 55 -25 85 -31 69 -14
75 -19 89 -75 12 -46 12 -46 -29 -90 -22 -24 -48 -60 -57 -79 -9 -19 -20 -35
-24 -35 -29 0 -159 210 -159 257 0 16 47 73 59 73 3 0 19 -9 36 -20z m663 -13
c5 -24 -15 -21 -21 4 -3 13 -1 19 6 16 7 -2 13 -11 15 -20z m-1278 -28 c-7
-11 -14 -18 -17 -15 -3 3 0 12 7 21 18 21 23 19 10 -6z m872 -39 c4 -49 -18
-48 -26 0 -7 45 1 72 15 48 5 -9 10 -30 11 -48z m743 44 c-36 -29 -87 -46 -98
-35 -8 8 -5 11 9 11 10 0 37 9 59 19 50 24 56 25 30 5z m-39 -49 c-11 -8 -27
-15 -35 -14 -9 0 -2 7 14 14 39 18 45 18 21 0z m39 -55 c-13 -25 -21 -31 -38
-26 -12 3 -25 6 -29 6 -17 0 -7 20 10 20 9 0 28 9 42 20 32 24 35 19 15 -20z
m-40 -59 c2 -5 -4 -26 -15 -47 -10 -22 -24 -58 -30 -82 -7 -26 -16 -42 -23
-39 -16 5 -21 122 -8 169 l11 36 30 -14 c16 -9 32 -19 35 -23z m-945 -115 c0
-6 -7 -2 -15 8 -8 11 -15 25 -15 30 0 6 7 2 15 -8 8 -11 15 -25 15 -30z m18
-71 c0 -16 -2 -15 -8 5 -11 34 -11 60 0 35 5 -11 8 -29 8 -40z"/>
<path d="M471 2754 c0 -11 3 -14 6 -6 3 7 2 16 -1 19 -3 4 -6 -2 -5 -13z"/>
<path d="M695 2400 c19 -8 83 -14 74 -6 -2 2 -24 6 -49 9 -30 4 -38 3 -25 -3z"/>
<path d="M640 2350 c8 -5 22 -9 30 -9 10 0 8 3 -5 9 -27 12 -43 12 -25 0z"/>
<path d="M1146 1824 c-37 -53 -65 -98 -63 -101 8 -7 94 100 116 145 13 24 21
46 19 48 -3 2 -35 -40 -72 -92z"/>
<path d="M1428 1543 c6 -2 18 -2 25 0 6 3 1 5 -13 5 -14 0 -19 -2 -12 -5z"/>
<path d="M2711 1654 c41 -60 79 -106 79 -95 0 7 5 9 12 5 7 -4 3 8 -8 27 -11
19 -24 32 -28 31 -4 -2 -22 9 -39 25 -21 19 -26 21 -16 7z m79 -78 c0 -12 -5
-7 -19 24 -11 24 -11 24 3 6 9 -11 16 -24 16 -30z"/>
<path d="M2814 1571 c1 -16 4 -27 7 -25 4 2 10 -8 13 -21 4 -14 11 -23 16 -20
6 3 10 -2 11 -12 0 -10 3 -13 6 -6 7 18 -17 84 -28 78 -5 -4 -9 1 -9 9 0 8 -4
17 -9 20 -4 3 -8 -8 -7 -23z"/>
<path d="M2882 1515 c0 -11 4 -33 8 -50 7 -27 8 -27 8 -5 0 14 -4 36 -8 50 -6
20 -8 21 -8 5z"/>
<path d="M2057 1233 c-4 -3 -7 -11 -7 -17 0 -6 5 -5 12 2 6 6 9 14 7 17 -3 3
-9 2 -12 -2z"/>
<path d="M2273 1579 c-23 -11 -48 -28 -55 -37 -8 -10 -1 -8 18 6 18 12 56 28
85 36 42 12 47 15 24 15 -16 1 -49 -8 -72 -20z"/>
<path d="M2244 1320 c-12 -5 -25 -14 -29 -20 -4 -7 4 -6 21 3 16 8 36 17 44
20 13 5 13 5 0 6 -8 0 -25 -4 -36 -9z"/>
<path d="M1723 1583 c15 -2 37 -2 50 0 12 2 0 4 -28 4 -27 0 -38 -2 -22 -4z"/>
<path d="M1910 1175 c0 -16 54 -108 57 -98 3 7 -8 33 -22 58 -25 41 -35 53
-35 40z"/>
<path d="M2810 1325 c-9 -11 -10 -19 -2 -27 14 -14 32 -1 32 23 0 23 -13 25
-30 4z"/>
<path d="M2752 1184 c4 -21 22 -23 26 -1 2 10 -3 17 -13 17 -10 0 -15 -6 -13
-16z"/>
<path d="M2370 1148 c14 -6 52 -24 85 -40 44 -20 53 -23 35 -8 -14 11 -49 29
-78 40 -55 21 -85 27 -42 8z"/>
<path d="M1516 1014 c-5 -14 -4 -15 9 -4 17 14 19 20 6 20 -5 0 -12 -7 -15
-16z"/>
<path d="M1987 880 c-4 -14 -6 -38 -6 -55 1 -24 3 -21 10 15 10 49 7 80 -4 40z"/>
<path d="M2002 800 c0 -19 2 -27 5 -17 2 9 2 25 0 35 -3 9 -5 1 -5 -18z"/>
<path d="M1870 699 c-6 -23 -9 -43 -6 -46 6 -7 12 9 20 55 8 45 -1 40 -14 -9z"/>
<path d="M1903 655 c0 -27 2 -38 4 -22 2 15 2 37 0 50 -2 12 -4 0 -4 -28z"/>
<path d="M2123 643 c15 -2 39 -2 55 0 15 2 2 4 -28 4 -30 0 -43 -2 -27 -4z"/>
<path d="M1874 506 c11 -9 27 -16 35 -15 14 0 14 1 1 6 -8 3 -24 10 -35 15
-20 9 -20 9 -1 -6z"/>
<path d="M895 822 c33 -11 69 -22 80 -26 11 -4 4 2 -16 13 -21 11 -57 23 -80
26 -41 5 -40 4 16 -13z"/>
<path d="M1195 708 c65 -41 141 -75 185 -82 32 -6 33 -5 10 6 -14 6 -72 33
-129 60 -57 26 -106 48 -110 48 -3 0 17 -15 44 -32z"/>
<path d="M1119 690 c46 -23 85 -39 87 -37 4 4 -128 66 -156 73 -8 2 23 -14 69
-36z"/>
<path d="M1123 603 c15 -2 37 -2 50 0 12 2 0 4 -28 4 -27 0 -38 -2 -22 -4z"/>
<path d="M1083 533 c15 -2 39 -2 55 0 15 2 2 4 -28 4 -30 0 -43 -2 -27 -4z"/>
<path d="M655 600 c-8 -13 4 -32 16 -25 12 8 12 35 0 35 -6 0 -13 -4 -16 -10z"/>
<path d="M1126 433 c-12 -12 -6 -33 9 -33 8 0 15 6 15 14 0 17 -14 28 -24 19z"/>
<path d="M823 300 c0 -36 2 -50 4 -32 2 17 2 47 0 65 -2 17 -4 3 -4 -33z"/>
<path d="M3157 1017 l-37 -19 30 -28 c16 -15 30 -38 30 -51 0 -16 3 -20 11
-12 5 5 9 37 7 69 l-3 59 -38 -18z"/>
<path d="M3138 819 c-33 -24 -36 -49 -8 -74 29 -27 70 -7 70 34 0 63 -17 74
-62 40z"/>
<path d="M2886 641 c-17 -18 -17 -21 -1 -45 20 -30 27 -32 60 -10 23 15 23 16
7 45 -20 34 -42 37 -66 10z"/>
<path d="M3093 601 l-23 -19 21 -26 c24 -31 30 -32 60 -7 22 18 22 19 6 45
-20 31 -34 32 -64 7z"/>
<path d="M490 450 c14 -11 34 -25 45 -31 14 -7 12 -4 -5 11 -14 11 -34 25 -45
31 -14 7 -12 4 5 -11z"/>
<path d="M2856 435 c-18 -13 -18 -16 -2 -40 19 -29 24 -30 50 -10 18 13 18 16
2 40 -19 29 -24 30 -50 10z"/>
<path d="M3066 395 c-17 -13 -18 -18 -6 -40 15 -29 18 -29 44 -10 16 12 18 19
8 40 -13 29 -20 30 -46 10z"/>
<path d="M1867 361 c-50 -51 -47 -58 5 -10 23 21 40 40 37 43 -2 3 -21 -12
-42 -33z"/>
<path d="M1954 388 c56 -38 77 -65 121 -163 27 -58 50 -104 52 -102 5 6 -32
108 -57 157 -30 60 -47 79 -95 101 -22 11 -32 14 -21 7z"/>
<path d="M580 384 c0 -5 19 -43 42 -84 66 -120 118 -229 118 -247 0 -9 -7 -24
-15 -33 -15 -16 -14 -17 10 -17 17 0 25 5 25 18 0 10 5 21 10 24 6 3 10 13 10
22 0 9 -3 13 -7 9 -4 -3 -17 18 -29 48 -20 51 -164 279 -164 260z"/>
<path d="M2226 358 c10 -20 21 -35 26 -32 4 3 8 -3 9 -13 0 -10 3 -13 5 -7 6
14 -15 69 -23 61 -3 -4 -12 1 -20 11 -8 11 -7 3 3 -20z"/>
<path d="M2410 302 c-21 -17 -21 -18 -3 -40 18 -21 19 -21 42 -3 21 16 22 20
10 39 -17 27 -21 27 -49 4z"/>
<path d="M1778 195 c-27 -58 -48 -113 -48 -123 0 -20 49 -72 68 -72 6 0 -5 15
-25 34 l-37 33 18 49 c10 27 28 64 39 82 l19 33 23 -63 c12 -35 27 -62 33 -60
7 1 12 -3 12 -10 0 -6 3 -9 6 -5 3 3 -2 29 -11 58 -13 38 -20 48 -27 38 -7
-10 -8 -8 -5 9 3 12 2 20 -3 17 -11 -7 -20 36 -13 63 11 43 -3 20 -49 -83z"/>
<path d="M2617 262 c-11 -12 -13 -22 -6 -35 12 -20 18 -21 42 -3 15 12 16 18
7 35 -13 26 -22 26 -43 3z"/>
<path d="M520 266 c0 -2 8 -10 18 -17 15 -13 16 -12 3 4 -13 16 -21 21 -21 13z"/>
<path d="M611 216 c9 -12 23 -32 32 -46 10 -13 17 -19 17 -12 0 7 -15 27 -32
45 -18 18 -26 24 -17 13z"/>
<path d="M1099 223 c-13 -16 -12 -17 4 -4 16 13 21 21 13 21 -2 0 -10 -8 -17
-17z"/>
<path d="M2827 229 c-20 -11 -22 -30 -5 -47 14 -14 48 2 48 22 0 22 -23 36
-43 25z"/>
<path d="M1059 193 c-13 -16 -12 -17 4 -4 16 13 21 21 13 21 -2 0 -10 -8 -17
-17z"/>
<path d="M2011 205 c1 -19 18 -51 18 -35 0 8 -4 22 -9 30 -5 8 -9 11 -9 5z"/>
<path d="M3032 183 c-19 -16 -20 -20 -8 -36 12 -16 17 -16 35 -5 24 15 27 31
7 47 -10 9 -18 7 -34 -6z"/>
<path d="M2046 136 c2 -16 4 -34 4 -40 0 -6 5 -4 10 4 8 12 10 11 10 -7 0 -12
4 -24 9 -28 5 -3 12 -19 16 -35 7 -30 25 -42 25 -17 0 30 -32 117 -40 112 -6
-4 -10 2 -10 12 0 14 -2 15 -9 4 -7 -12 -10 -11 -14 5 -2 10 -3 6 -1 -10z m41
-58 c-3 -8 -6 -5 -6 6 -1 11 2 17 5 13 3 -3 4 -12 1 -19z"/>
<path d="M1891 150 c0 -8 4 -24 9 -35 5 -13 9 -14 9 -5 0 8 -4 24 -9 35 -5 13
-9 14 -9 5z"/>
<path d="M1921 123 c-1 -12 -4 -30 -7 -40 -5 -15 -4 -15 5 -3 9 13 11 12 12
-5 0 -14 3 -11 10 9 4 17 6 32 4 35 -3 2 -5 -2 -6 -10 -1 -8 -5 -3 -9 11 -7
23 -8 23 -9 3z"/>
<path d="M1517 60 c-14 -33 -23 -60 -21 -60 7 0 56 112 51 116 -2 2 -15 -23
-30 -56z"/>
<path d="M2374 95 c-18 -13 -18 -15 -2 -31 18 -18 48 -13 48 9 0 26 -25 38
-46 22z"/>
<path d="M1950 61 c0 -17 4 -32 8 -35 4 -2 6 11 4 30 -5 42 -12 45 -12 5z"/>
<path d="M1971 74 c0 -11 3 -14 6 -6 3 7 2 16 -1 19 -3 4 -6 -2 -5 -13z"/>
<path d="M2580 54 c-11 -12 -11 -18 1 -29 20 -20 43 -4 34 24 -8 25 -18 27
-35 5z"/>
<path d="M692 30 c0 -19 2 -27 5 -17 2 9 2 25 0 35 -3 9 -5 1 -5 -18z"/>
<path d="M1452 20 c-7 -11 -8 -20 -3 -20 9 0 24 30 18 36 -1 2 -8 -6 -15 -16z"/>
<path d="M2793 23 c-20 -7 -15 -23 7 -23 11 0 20 4 20 9 0 13 -12 19 -27 14z"/>
</g>
</svg>
