<?xml version="1.0" standalone="no"?>
<!DOCTYPE svg PUBLIC "-//W3C//DTD SVG 20010904//EN"
 "http://www.w3.org/TR/2001/REC-SVG-20010904/DTD/svg10.dtd">
<svg version="1.0" xmlns="http://www.w3.org/2000/svg"
 width="2000.000000pt" height="2000.000000pt" viewBox="0 0 2000.000000 2000.000000"
 preserveAspectRatio="xMidYMid meet">

<g transform="translate(0.000000,2000.000000) scale(0.100000,-0.100000)"
fill="#000000" stroke="none">
<path d="M0 10000 l0 -10000 10000 0 10000 0 0 10000 0 10000 -10000 0 -10000
0 0 -10000z m14363 7552 c19 -20 42 -86 52 -144 10 -64 45 -94 130 -113 78
-18 140 -51 140 -75 0 -24 -63 -58 -141 -75 -84 -19 -119 -49 -129 -113 -16
-92 -51 -162 -81 -162 -24 0 -53 52 -70 126 -22 99 -47 129 -122 144 -105 22
-169 60 -156 93 7 20 86 53 149 63 70 10 109 50 125 129 16 80 47 145 69 145
10 0 25 -8 34 -18z m-9236 -378 c15 -24 15 -29 2 -53 -29 -51 -109 -33 -109
24 0 56 76 76 107 29z m4483 -354 c532 -29 958 -142 1404 -373 469 -243 888
-610 1210 -1061 95 -133 220 -344 278 -468 l17 -37 -67 -21 c-84 -25 -130 -53
-143 -87 -8 -22 -3 -45 30 -132 151 -406 217 -774 228 -1277 9 -404 -27 -791
-109 -1187 -25 -120 -29 -152 -19 -173 11 -26 74 -59 91 -49 20 13 8 -13 -56
-115 -126 -202 -230 -318 -428 -476 -595 -478 -1389 -798 -2261 -913 -268 -35
-434 -45 -755 -45 -415 0 -652 19 -917 73 -124 26 -313 82 -313 94 0 11 109
152 193 250 43 50 64 67 76 62 71 -28 419 -88 611 -105 148 -13 542 -13 690 0
815 73 1521 353 2065 820 421 362 683 802 761 1280 23 142 23 391 0 525 -54
306 -165 560 -354 814 -213 285 -517 529 -896 718 -356 178 -725 284 -1186
339 -197 24 -637 24 -840 0 -881 -101 -1606 -423 -2130 -945 -408 -407 -617
-853 -636 -1356 -7 -172 14 -347 62 -519 25 -90 26 -99 11 -108 -9 -5 -45 -31
-79 -59 -34 -27 -65 -46 -69 -42 -13 14 -79 225 -109 348 -76 317 -104 565
-104 945 1 431 37 765 114 1050 134 494 375 926 710 1273 500 519 1173 823
2059 927 308 37 573 46 861 30z m-6630 -375 c11 -10 25 -35 31 -55 9 -31 8
-44 -6 -74 -53 -111 -215 -70 -215 55 0 22 10 41 35 66 33 33 39 35 85 31 29
-3 59 -13 70 -23z m12826 -740 c74 -51 37 -165 -53 -165 -50 0 -88 38 -88 90
0 34 6 47 28 66 32 27 82 32 113 9z m-6036 -609 c180 -23 269 -39 265 -47 -3
-4 3 -5 13 -2 10 2 54 -5 98 -17 43 -11 87 -21 97 -21 10 0 15 -5 11 -11 -5
-8 -1 -9 10 -5 10 4 29 4 43 1 19 -5 22 -9 11 -16 -9 -6 -6 -7 9 -3 13 4 53
-3 92 -16 53 -17 68 -26 64 -38 -4 -12 -3 -13 5 -3 7 11 26 8 98 -18 49 -17
100 -39 114 -48 14 -9 28 -16 32 -14 11 3 202 -89 210 -101 4 -7 8 -8 8 -3 0
5 8 2 18 -6 9 -9 33 -23 52 -33 37 -18 160 -96 160 -101 0 -5 -47 3 -58 10 -7
4 -10 2 -6 -7 3 -9 19 -14 44 -13 31 1 51 -8 92 -39 81 -60 171 -135 162 -135
-4 0 14 -14 39 -31 26 -17 47 -35 47 -40 0 -5 -22 7 -50 28 -27 20 -50 41 -50
46 0 4 -4 5 -10 2 -5 -3 -10 -1 -10 4 0 6 -5 11 -11 11 -18 0 -59 37 -51 45 4
5 1 5 -6 1 -7 -4 -42 11 -85 38 -39 24 -93 55 -119 67 -26 12 -45 27 -42 31 4
5 0 9 -7 8 -24 -4 -59 12 -52 23 3 6 1 7 -6 3 -6 -4 -22 -1 -34 6 -12 8 -61
30 -109 48 -48 19 -85 37 -82 41 2 4 -2 7 -9 6 -30 -1 -47 4 -47 13 0 5 6 7
14 4 8 -3 22 -1 31 4 16 8 16 9 1 15 -10 4 -15 3 -11 -3 7 -11 -1 -12 -33 -3
-18 4 -21 8 -10 15 9 7 8 8 -5 4 -10 -3 -24 -6 -30 -7 -7 0 -1 -5 12 -10 13
-5 22 -12 19 -14 -7 -7 -121 36 -129 48 -4 5 -11 7 -15 4 -7 -4 -105 19 -239
57 -5 1 -32 6 -59 11 -33 5 -44 10 -35 16 9 6 1 6 -20 2 -25 -4 -36 -2 -43 10
-5 10 -14 17 -21 17 -8 0 -6 -4 3 -11 11 -8 4 -9 -25 -4 -175 30 -362 46 -590
53 -164 4 -236 9 -195 13 l65 6 -61 1 c-41 1 -65 -2 -73 -12 -7 -9 -49 -15
-128 -20 -218 -13 -505 -62 -717 -122 -67 -19 -128 -36 -135 -37 -8 -1 -33
-20 -54 -42 -22 -22 -44 -39 -48 -38 -5 2 -6 -4 -2 -12 5 -15 -32 -81 -68
-120 -105 -113 -149 -156 -157 -151 -5 3 -16 -2 -23 -12 -12 -15 -12 -16 1 -7
9 6 7 2 -4 -8 -10 -10 -25 -16 -32 -13 -8 3 -11 0 -8 -9 6 -15 -29 -39 -41
-27 -3 4 -5 0 -3 -8 2 -10 -3 -14 -14 -12 -11 2 -18 -3 -18 -14 0 -10 -5 -14
-16 -10 -10 4 -13 2 -8 -6 5 -8 2 -9 -10 -5 -9 4 -15 3 -12 -2 6 -10 -83 -71
-102 -71 -7 0 -12 -4 -12 -8 0 -15 -50 -32 -78 -27 -22 4 -23 4 -7 -4 21 -9
20 -9 -140 -81 -88 -39 -228 -82 -257 -78 -15 3 -25 1 -22 -3 2 -4 -35 -10
-83 -14 -49 -3 -96 -10 -106 -16 -10 -5 -23 -7 -29 -3 -7 5 -8 2 -3 -6 6 -10
4 -12 -8 -7 -9 3 -16 3 -14 -2 2 -7 -21 -34 -106 -122 -16 -16 -33 -27 -38
-23 -5 3 -8 0 -7 -8 2 -7 -3 -12 -10 -10 -8 1 -11 -2 -7 -8 5 -8 14 -5 28 7
14 12 12 6 -7 -19 -27 -37 -45 -51 -30 -25 4 6 4 9 0 5 -4 -3 -7 -9 -6 -12 2
-11 -34 -66 -42 -66 -5 0 -1 12 8 28 l16 27 -18 -24 c-10 -13 -18 -33 -19 -45
0 -12 -6 -20 -13 -18 -8 1 -11 -2 -7 -9 4 -6 -6 -24 -21 -41 -16 -17 -22 -27
-15 -23 9 5 6 -3 -6 -21 -31 -44 -141 -267 -142 -289 0 -3 -7 -18 -16 -35 -8
-16 -15 -38 -15 -50 0 -12 -4 -18 -10 -15 -5 3 -8 0 -5 -7 3 -7 -6 -53 -19
-102 -13 -49 -25 -83 -28 -75 -3 8 -5 -6 -5 -31 0 -25 -5 -108 -9 -185 l-9
-140 -14 101 c-16 120 -10 326 13 453 20 110 68 261 80 254 5 -4 6 -1 1 6 -4
7 1 33 10 58 13 34 20 42 27 32 7 -10 8 -9 4 5 -4 12 6 43 26 83 77 151 73
144 88 131 12 -11 12 -10 1 4 -13 17 6 50 108 188 54 73 254 295 237 263 -4
-6 -2 -15 4 -18 6 -4 10 -3 9 2 -1 4 2 18 6 31 6 18 10 20 21 11 12 -9 13 -9
9 4 -8 18 173 180 192 173 7 -3 12 -1 10 3 -3 14 135 112 150 107 7 -3 15 0
19 6 5 7 2 8 -7 3 -12 -8 -12 -6 0 8 7 9 17 15 21 12 4 -3 10 2 14 10 3 8 10
15 16 15 6 0 8 -6 4 -12 -5 -9 -2 -9 9 1 19 15 23 26 5 15 -7 -4 -8 -3 -4 4 4
7 12 12 17 12 5 0 27 12 49 26 35 23 44 25 66 15 14 -6 23 -7 20 -2 -4 5 0 12
6 15 7 3 3 3 -9 0 -44 -11 -22 11 43 44 36 17 71 29 76 25 6 -3 8 -2 5 4 -9
15 36 33 55 22 17 -9 36 6 24 18 -12 13 379 165 449 175 11 2 22 6 25 9 18 22
458 112 505 104 25 -4 27 -3 10 5 -15 8 -9 9 28 5 26 -2 46 -1 43 4 -3 4 54
13 127 20 73 6 146 13 162 15 66 9 547 -4 655 -18z m3078 -383 c145 -402 222
-828 239 -1333 8 -236 -12 -514 -58 -820 -18 -120 -58 -328 -75 -386 -5 -19
-16 -22 -87 -28 -45 -3 -116 -6 -158 -6 l-77 0 9 38 c79 357 122 914 101 1317
-22 405 -80 736 -187 1058 -25 76 -45 139 -45 141 0 6 264 71 306 75 6 1 21
-25 32 -56z m339 -189 c142 -272 203 -708 190 -1344 -11 -507 -73 -800 -200
-945 l-36 -40 10 40 c20 88 69 388 86 525 14 117 18 220 18 535 -1 346 -3 409
-23 560 -36 273 -109 601 -187 840 -15 45 104 -98 142 -171z m-9028 -10 c38
-23 53 -51 53 -98 -1 -34 -7 -47 -36 -73 -40 -37 -79 -42 -126 -18 -40 21 -60
53 -60 98 0 31 7 46 34 73 39 39 89 45 135 18z m13135 -130 c41 -42 30 -120
-21 -143 -40 -18 -73 -13 -104 18 -37 37 -38 79 -3 120 35 41 89 43 128 5z
m-11591 -436 c-4 -29 -8 -217 -8 -418 1 -386 11 -510 66 -799 35 -186 126
-504 166 -584 l14 -29 -107 -101 c-59 -56 -110 -103 -114 -105 -10 -4 -106
215 -146 333 -72 216 -123 454 -149 695 -35 316 -28 777 12 865 42 93 87 134
187 171 88 33 88 33 79 -28z m3986 -87 c60 -30 74 -60 79 -159 9 -193 -82
-405 -277 -646 -31 -37 -77 -94 -102 -125 -48 -59 -104 -149 -98 -156 10 -10
146 58 208 104 135 100 292 286 366 431 64 127 100 293 88 403 -6 51 -3 53 46
36 43 -15 61 -54 61 -132 0 -68 -36 -226 -72 -317 -39 -99 -109 -233 -173
-330 -82 -124 -145 -254 -145 -297 0 -20 58 -5 130 34 70 38 115 40 151 7 25
-23 24 -45 -6 -104 -123 -243 -784 -794 -1208 -1006 -151 -77 -150 -76 -269
-49 -188 42 -356 111 -494 200 -32 21 -102 82 -154 134 -106 107 -173 211
-220 341 -59 161 -89 398 -71 568 10 98 9 96 176 236 421 352 847 587 1235
681 153 37 170 35 219 -22 23 -25 44 -57 47 -70 12 -44 -3 -111 -40 -183 -95
-187 -287 -369 -564 -534 -71 -43 -155 -98 -188 -124 l-59 -47 63 -3 c114 -5
253 44 446 158 331 197 549 487 534 714 -5 75 -21 116 -70 178 l-29 37 38 17
c21 9 76 24 123 35 97 21 176 18 229 -10z m6226 -315 c62 -19 95 -50 95 -91 0
-18 -13 -65 -30 -104 -56 -136 -142 -264 -349 -516 -72 -88 -131 -163 -131
-168 0 -4 24 5 53 19 238 120 495 377 589 592 l23 52 35 -29 c32 -26 35 -33
34 -82 -1 -99 -69 -213 -224 -374 -70 -73 -207 -248 -245 -314 -14 -24 71 -4
154 36 87 41 94 37 88 -49 -2 -45 -11 -68 -42 -115 -82 -125 -267 -282 -521
-444 -134 -85 -386 -226 -499 -279 l-65 -30 -41 21 c-262 133 -504 369 -621
604 -85 170 -130 443 -98 592 l11 48 262 127 262 127 200 40 c253 50 333 62
445 64 103 2 114 -5 106 -63 -13 -87 -63 -157 -247 -347 -99 -101 -179 -188
-179 -194 0 -14 62 -2 133 26 101 40 168 87 278 195 89 88 113 118 145 185 37
74 39 85 39 170 0 85 -2 94 -28 128 -36 47 -76 68 -157 82 l-65 11 115 34 c63
18 144 39 180 46 92 17 238 17 295 0z m-1972 -863 c4 -85 14 -171 27 -223 82
-338 298 -631 627 -849 60 -39 113 -73 118 -75 13 -4 81 56 -525 -456 -155
-130 -940 -784 -1200 -999 -96 -79 -185 -153 -196 -163 l-22 -20 -45 69 c-24
37 -56 79 -71 92 l-26 24 0 -84 c0 -109 22 -250 50 -319 47 -118 267 -868 257
-876 -2 -2 -422 -104 -792 -194 -137 -33 -293 -71 -344 -85 -52 -13 -97 -23
-99 -21 -2 3 -19 86 -38 186 -19 100 -41 196 -48 213 -59 137 -205 214 -356
188 -842 -149 -1992 -268 -2985 -312 -310 -13 -356 -23 -433 -97 -82 -77 -97
-117 -97 -247 1 -60 11 -185 24 -278 13 -92 21 -170 18 -173 -3 -3 -92 -14
-199 -24 -223 -22 -347 -36 -367 -41 -16 -4 -65 223 -151 691 -22 124 -43 233
-46 243 -4 12 -16 17 -45 17 -176 0 -552 158 -829 348 -475 325 -733 758 -780
1307 -25 290 32 557 177 825 268 497 859 991 1630 1362 89 43 165 78 168 78 3
0 5 -57 5 -127 0 -359 116 -663 341 -898 135 -141 321 -253 546 -329 l94 -33
-38 -28 c-104 -78 -346 -347 -505 -562 -244 -328 -401 -611 -457 -824 -33
-126 -33 -136 -8 -135 18 1 22 -4 20 -29 -1 -23 0 -25 4 -6 4 19 7 21 14 10 5
-9 9 -10 9 -2 0 6 -5 15 -10 18 -7 4 -7 13 0 26 6 10 10 25 9 32 -2 18 0 31
10 45 6 10 31 4 113 -32 107 -45 309 -111 428 -140 101 -24 356 -63 562 -86
576 -63 1159 -46 1698 50 875 155 1674 545 2207 1077 85 85 145 152 149 168 7
30 3 49 -56 270 -61 224 -60 215 -10 272 56 63 177 247 233 353 l44 85 79 3
c196 7 280 19 347 51 153 73 269 268 327 551 l11 55 77 35 c42 19 136 62 207
97 72 34 133 62 136 62 3 1 9 -61 12 -136z m-11813 -113 c51 -27 43 -93 -12
-105 -59 -13 -95 65 -46 99 26 19 33 19 58 6z m10189 -1386 c19 -76 30 -140
26 -153 -8 -26 -198 -205 -320 -302 -335 -266 -751 -489 -1193 -640 -744 -254
-1613 -322 -2537 -198 -280 37 -571 113 -752 196 l-61 28 101 151 101 151 56
-19 c136 -47 348 -97 520 -122 383 -56 1068 -61 1460 -10 638 82 1146 227
1645 468 329 159 675 380 861 549 27 25 52 42 55 39 3 -4 20 -66 38 -138z
m-8844 -338 c70 -70 23 -181 -76 -181 -89 0 -133 113 -70 176 39 39 109 41
146 5z m12040 -501 c42 -41 30 -102 -24 -125 -59 -24 -123 36 -101 96 22 57
83 72 125 29z m-2281 -322 c33 -111 305 -1204 351 -1413 8 -36 33 -144 55
-240 58 -250 146 -685 166 -820 39 -272 -11 -460 -169 -626 -62 -66 -212 -182
-222 -172 -4 4 -13 120 -35 453 -16 230 -69 660 -108 866 -8 43 -7 47 25 84
168 194 108 489 -123 602 l-50 25 -29 117 c-39 161 -123 455 -185 646 -28 88
-52 168 -53 177 -1 11 63 71 178 167 99 82 183 150 187 150 4 1 9 -7 12 -16z
m-5890 -151 c3 -5 -1 -9 -9 -9 -8 0 -12 4 -9 9 3 4 7 8 9 8 2 0 6 -4 9 -8z
m4046 -967 c52 -27 66 -60 103 -255 102 -526 207 -1209 211 -1362 1 -74 -16
-108 -71 -141 -54 -31 -695 -146 -1183 -211 -410 -55 -857 -98 -1175 -112
l-150 -7 -22 154 c-120 836 -121 842 -150 868 -26 23 -31 23 -138 17 -60 -4
-133 -9 -161 -13 l-50 -5 -22 193 c-46 412 -62 545 -66 562 -3 10 1 20 7 22 7
2 86 9 177 14 373 24 894 67 1115 91 294 33 373 42 490 55 223 26 760 104 900
130 96 17 151 18 185 0z m5809 -53 c10 -20 24 -54 30 -74 18 -54 49 -74 126
-82 102 -10 143 -37 109 -71 -21 -21 -89 -55 -110 -55 -9 0 -31 -15 -50 -34
-29 -29 -34 -41 -35 -82 -1 -92 -38 -154 -73 -125 -18 15 -39 55 -59 116 -19
54 -65 85 -129 85 -55 0 -118 22 -118 42 0 24 16 37 75 63 95 42 100 45 114
68 8 12 17 52 21 89 9 83 32 123 60 108 11 -6 28 -27 39 -48z m-4097 -254
c155 -85 154 -291 -2 -370 -35 -18 -187 -61 -415 -118 -348 -87 -838 -200
-868 -200 -10 0 -18 14 -22 43 -4 23 -20 116 -36 206 -16 90 -27 166 -25 168
5 5 163 45 451 113 121 29 342 83 490 121 301 76 349 80 427 37z m-4758 -20
c10 -68 27 -208 42 -343 57 -522 57 -525 89 -552 32 -28 9 -27 275 -6 l76 6
37 -274 c21 -151 45 -317 52 -369 33 -221 33 -221 18 -227 -19 -7 -457 5 -576
16 -144 13 -156 29 -216 286 -86 363 -160 769 -205 1116 -32 240 -32 248 -3
289 43 63 63 72 198 80 224 13 207 15 213 -22z m4760 -571 c30 -121 100 -741
116 -1032 39 -713 126 -1219 298 -1738 l59 -178 -62 -49 c-316 -251 -764 -405
-1385 -476 -90 -10 -266 -18 -465 -21 l-320 -5 -72 148 c-95 197 -138 296
-213 494 -86 225 -200 584 -189 594 2 2 42 23 89 46 119 59 236 128 252 147
25 31 -119 12 -532 -72 -416 -84 -660 -107 -1070 -100 -168 3 -329 8 -357 10
-29 3 -53 1 -53 -4 0 -5 69 -37 153 -71 83 -34 153 -64 155 -65 2 -2 -12 -52
-31 -112 -41 -124 -94 -332 -132 -512 -30 -146 -95 -523 -95 -555 0 -19 -14
-27 -97 -58 -371 -136 -685 -192 -1083 -192 -394 0 -715 56 -1037 180 -109 42
-103 18 -73 251 83 643 265 1281 517 1803 l55 115 -22 80 c-12 44 -50 193 -84
330 l-63 250 191 7 c105 3 220 11 256 17 99 17 119 15 125 -11 45 -199 93
-373 113 -412 33 -61 95 -116 158 -139 79 -29 322 -40 769 -33 412 5 526 11
895 47 655 62 1694 228 1833 292 87 40 146 112 171 210 14 54 14 72 -9 260
-14 111 -28 218 -31 238 -7 43 -18 37 136 69 179 37 644 147 880 209 124 32
230 59 236 60 7 1 14 -10 18 -22z m-5248 -387 c21 -125 28 -187 21 -192 -22
-14 -169 -23 -378 -23 -211 0 -216 0 -251 24 -58 40 -82 85 -83 151 0 49 5 65
30 101 48 68 77 78 291 95 104 8 212 19 239 24 105 17 96 30 131 -180z m-4009
-310 c10 -20 10 -29 -1 -45 -16 -23 -61 -32 -82 -14 -17 14 -18 61 -2 77 21
21 71 10 85 -18z m12054 -549 c64 -64 21 -181 -66 -181 -77 0 -124 53 -112
128 9 52 46 82 103 82 37 0 51 -6 75 -29z m-13250 -890 c64 -65 20 -171 -71
-171 -33 0 -48 6 -71 29 -64 65 -20 171 71 171 33 0 48 -6 71 -29z m15183
-137 c50 -49 -24 -124 -76 -77 -36 33 -13 93 37 93 13 0 31 -7 39 -16z m-4171
-892 c37 -92 215 -488 327 -727 205 -436 297 -647 315 -715 69 -266 -27 -499
-282 -682 -271 -195 -658 -317 -1138 -358 -449 -38 -873 48 -1011 204 -64 73
-123 197 -130 277 -8 78 13 166 58 253 44 82 219 262 245 251 10 -4 67 -21
126 -36 256 -68 506 -42 752 77 80 39 212 130 202 140 -2 2 -31 -7 -65 -21
-199 -81 -427 -118 -600 -97 -114 14 -182 30 -294 73 -79 30 -89 37 -199 149
-119 120 -201 220 -325 393 -69 97 -194 291 -194 302 0 3 53 5 118 5 64 0 203
5 307 10 708 38 1302 206 1665 470 52 38 98 69 101 69 4 1 14 -16 22 -37z
m-9517 -177 c9 -13 24 -57 34 -96 11 -40 27 -81 38 -91 10 -11 54 -28 98 -39
154 -40 153 -90 -2 -129 -95 -24 -116 -44 -133 -126 -12 -65 -43 -124 -64
-124 -26 0 -48 37 -64 109 -24 99 -42 118 -135 141 -88 22 -118 38 -118 62 0
25 40 48 122 69 40 11 81 27 91 37 10 10 27 54 38 97 27 111 61 142 95 90z
m2916 -475 c308 -109 626 -160 1003 -160 375 0 672 46 1025 159 68 22 125 39
126 38 1 -1 -7 -69 -16 -152 -42 -350 -80 -845 -80 -1040 0 -184 -41 -303
-149 -438 -255 -315 -858 -527 -1503 -527 -514 0 -928 140 -1055 358 -61 103
-91 364 -58 497 48 195 184 339 386 410 l39 14 16 -34 c31 -66 142 -171 160
-152 2 2 -3 39 -11 83 -21 111 -39 606 -30 819 6 158 9 176 24 169 9 -3 64
-23 123 -44z m9560 -247 c22 -20 23 -51 1 -75 -22 -24 -69 -24 -83 1 -33 63
30 121 82 74z"/>
<path d="M9023 15093 c9 -2 23 -2 30 0 6 3 -1 5 -18 5 -16 0 -22 -2 -12 -5z"/>
<path d="M8475 15000 c-3 -6 1 -7 9 -4 18 7 21 14 7 14 -6 0 -13 -4 -16 -10z"/>
<path d="M10168 14993 c6 -2 18 -2 25 0 6 3 1 5 -13 5 -14 0 -19 -2 -12 -5z"/>
<path d="M9473 14983 c9 -2 25 -2 35 0 9 3 1 5 -18 5 -19 0 -27 -2 -17 -5z"/>
<path d="M9538 14983 c7 -3 16 -2 19 1 4 3 -2 6 -13 5 -11 0 -14 -3 -6 -6z"/>
<path d="M9578 14983 c7 -3 16 -2 19 1 4 3 -2 6 -13 5 -11 0 -14 -3 -6 -6z"/>
<path d="M8888 14943 c6 -2 18 -2 25 0 6 3 1 5 -13 5 -14 0 -19 -2 -12 -5z"/>
<path d="M10008 14943 c6 -2 18 -2 25 0 6 3 1 5 -13 5 -14 0 -19 -2 -12 -5z"/>
<path d="M8183 14930 c-34 -14 -28 -21 7 -9 17 6 30 13 30 15 0 6 -12 4 -37
-6z"/>
<path d="M10400 14929 c0 -5 5 -7 10 -4 6 3 10 8 10 11 0 2 -4 4 -10 4 -5 0
-10 -5 -10 -11z"/>
<path d="M10257 14909 c7 -7 15 -10 18 -7 3 3 -2 9 -12 12 -14 6 -15 5 -6 -5z"/>
<path d="M8198 14903 c7 -3 16 -2 19 1 4 3 -2 6 -13 5 -11 0 -14 -3 -6 -6z"/>
<path d="M10368 14873 c7 -3 16 -2 19 1 4 3 -2 6 -13 5 -11 0 -14 -3 -6 -6z"/>
<path d="M7910 14830 c-11 -7 -11 -10 -2 -10 7 0 11 -4 8 -9 -4 -5 4 -6 16 -3
19 5 20 7 5 10 -9 2 -15 8 -12 13 8 11 4 11 -15 -1z"/>
<path d="M7872 14821 c-11 -7 -11 -9 0 -14 9 -3 15 1 15 9 0 8 -1 14 -1 14 -1
0 -7 -4 -14 -9z"/>
<path d="M10800 14790 c8 -5 20 -10 25 -10 6 0 3 5 -5 10 -8 5 -19 10 -25 10
-5 0 -3 -5 5 -10z"/>
<path d="M8196 14743 c-6 -14 -5 -15 5 -6 7 7 10 15 7 18 -3 3 -9 -2 -12 -12z"/>
<path d="M10878 14703 c7 -3 16 -2 19 1 4 3 -2 6 -13 5 -11 0 -14 -3 -6 -6z"/>
<path d="M10960 14696 c0 -2 11 -6 25 -8 13 -3 22 -1 19 3 -5 9 -44 13 -44 5z"/>
<path d="M7586 14678 c3 -4 11 -5 19 -1 21 7 19 12 -4 10 -11 0 -18 -5 -15 -9z"/>
<path d="M10978 14663 c7 -3 16 -2 19 1 4 3 -2 6 -13 5 -11 0 -14 -3 -6 -6z"/>
<path d="M11030 14641 c0 -6 4 -13 10 -16 6 -3 7 1 4 9 -7 18 -14 21 -14 7z"/>
<path d="M8126 14628 c3 -5 10 -6 15 -3 13 9 11 12 -6 12 -8 0 -12 -4 -9 -9z"/>
<path d="M8096 14602 c-3 -5 1 -9 9 -9 8 0 15 4 15 9 0 4 -4 8 -9 8 -6 0 -12
-4 -15 -8z"/>
<path d="M7500 14591 c13 -10 13 -12 0 -22 -13 -9 -13 -10 0 -6 8 2 15 10 15
17 0 7 -7 15 -15 17 -13 4 -13 3 0 -6z"/>
<path d="M11161 14566 c2 -2 15 -9 29 -15 24 -11 24 -11 6 3 -16 13 -49 24
-35 12z"/>
<path d="M11226 14541 c-3 -5 1 -11 9 -14 9 -4 12 -1 8 9 -6 16 -10 17 -17 5z"/>
<path d="M8035 14529 c-4 -6 -13 -8 -21 -5 -8 3 -11 0 -7 -9 4 -11 10 -12 24
-4 10 5 19 14 19 19 0 13 -7 13 -15 -1z"/>
<path d="M7289 14499 l-24 -20 30 17 c39 24 40 24 28 24 -6 0 -21 -9 -34 -21z"/>
<path d="M11287 14499 c7 -7 15 -10 18 -7 3 3 -2 9 -12 12 -14 6 -15 5 -6 -5z"/>
<path d="M7929 14475 c0 0 -2 -8 -4 -17 -3 -16 -1 -16 21 -1 13 8 24 16 24 17
0 1 -38 3 -41 1z"/>
<path d="M7080 14345 c-19 -14 -30 -25 -25 -25 6 0 24 11 40 25 39 31 30 31
-15 0z"/>
<path d="M7696 14283 c10 -7 21 -13 24 -13 3 0 14 6 24 13 15 11 11 12 -24 12
-35 0 -39 -1 -24 -12z"/>
<path d="M6995 14271 c-3 -5 -2 -12 3 -15 5 -3 9 1 9 9 0 17 -3 19 -12 6z"/>
<path d="M7683 14255 c0 -7 6 -11 14 -8 7 3 13 6 13 8 0 2 -6 5 -13 8 -8 3
-14 -1 -14 -8z"/>
<path d="M6934 14182 c23 -26 23 -26 23 -7 0 8 -3 13 -5 10 -3 -3 -12 1 -21 7
-10 8 -9 4 3 -10z"/>
<path d="M7535 14180 c3 -5 11 -10 16 -10 6 0 7 5 4 10 -3 6 -11 10 -16 10 -6
0 -7 -4 -4 -10z"/>
<path d="M6900 14170 c-9 -6 -10 -10 -3 -10 6 0 15 5 18 10 8 12 4 12 -15 0z"/>
<path d="M6866 14137 c3 -10 9 -15 12 -12 3 3 0 11 -7 18 -10 9 -11 8 -5 -6z"/>
<path d="M6836 14111 c-12 -14 -14 -21 -6 -26 7 -4 17 -1 24 6 6 8 7 11 2 7
-21 -16 -28 -7 -11 12 10 11 16 20 13 20 -3 0 -13 -9 -22 -19z"/>
<path d="M7399 14113 c-13 -17 -13 -17 6 -3 11 8 22 16 24 17 2 2 0 3 -6 3 -6
0 -17 -8 -24 -17z"/>
<path d="M7190 14050 c8 -5 20 -10 25 -10 6 0 3 5 -5 10 -8 5 -19 10 -25 10
-5 0 -3 -5 5 -10z"/>
<path d="M7100 14046 c0 -2 7 -7 16 -10 8 -3 12 -2 9 4 -6 10 -25 14 -25 6z"/>
<path d="M6760 14020 c-6 -11 -8 -20 -6 -20 3 0 10 9 16 20 6 11 8 20 6 20 -3
0 -10 -9 -16 -20z"/>
<path d="M6983 14023 c15 -2 39 -2 55 0 15 2 2 4 -28 4 -30 0 -43 -2 -27 -4z"/>
<path d="M6885 13991 c-3 -5 -2 -12 3 -15 5 -3 9 1 9 9 0 17 -3 19 -12 6z"/>
<path d="M6701 13947 c-13 -21 -12 -21 5 -5 10 10 16 20 13 22 -3 3 -11 -5
-18 -17z"/>
<path d="M6614 13829 c-3 -6 -2 -15 3 -20 5 -5 9 -1 9 11 0 23 -2 24 -12 9z"/>
<path d="M6675 13749 c-4 -6 -5 -12 -2 -15 2 -3 7 2 10 11 7 17 1 20 -8 4z"/>
<path d="M6473 13365 c0 -8 4 -12 9 -9 5 3 6 10 3 15 -9 13 -12 11 -12 -6z"/>
<path d="M6361 13144 c0 -11 3 -14 6 -6 3 7 2 16 -1 19 -3 4 -6 -2 -5 -13z"/>
<path d="M6342 12980 c0 -14 2 -19 5 -12 2 6 2 18 0 25 -3 6 -5 1 -5 -13z"/>
<path d="M6343 12880 c0 -25 2 -35 4 -22 2 12 2 32 0 45 -2 12 -4 2 -4 -23z"/>
<path d="M7381 9924 c0 -11 3 -14 6 -6 3 7 2 16 -1 19 -3 4 -6 -2 -5 -13z"/>
<path d="M7322 9820 c0 -14 2 -19 5 -12 2 6 2 18 0 25 -3 6 -5 1 -5 -13z"/>
<path d="M7332 9730 c0 -19 3 -60 7 -90 l7 -55 5 72 c2 39 1 69 -3 67 -4 -2
-9 6 -11 18 -3 15 -4 10 -5 -12z"/>
<path d="M10809 8566 c-2 -2 -80 -12 -174 -21 -93 -10 -183 -24 -198 -32 -50
-25 -52 -43 -27 -270 12 -115 26 -216 31 -225 24 -44 68 -47 313 -18 178 22
199 28 217 62 12 21 7 118 -11 243 -5 33 -12 94 -15 134 -6 64 -12 79 -35 103
-20 20 -39 28 -63 28 -18 0 -36 -2 -38 -4z"/>
<path d="M9855 8459 c-93 -11 -180 -23 -192 -29 -12 -5 -30 -21 -39 -35 -16
-24 -16 -37 6 -228 12 -111 26 -212 31 -224 4 -12 20 -30 35 -39 25 -17 36
-17 232 5 116 13 218 29 234 37 15 8 31 26 34 40 8 33 -31 413 -46 446 -14 31
-49 48 -93 47 -18 -1 -108 -10 -202 -20z"/>
<path d="M10880 7829 c-36 -4 -128 -15 -205 -24 -145 -17 -168 -26 -185 -71
-9 -23 26 -403 40 -440 5 -13 21 -30 35 -40 23 -15 38 -15 233 6 114 12 217
26 230 31 13 5 29 24 37 42 12 30 11 58 -10 239 -13 113 -29 215 -37 227 -10
16 -66 47 -72 40 -1 -1 -30 -5 -66 -10z"/>
<path d="M10080 7739 c-36 -4 -114 -13 -175 -19 -217 -24 -212 -15 -180 -301
12 -113 28 -215 34 -226 21 -41 56 -43 273 -19 112 13 213 28 224 34 49 26 49
86 -1 447 -7 45 -20 66 -52 83 -24 13 -28 13 -123 1z"/>
</g>
</svg>
